<?xml version="1.0" encoding="UTF-8" standalone="no"?>
<!-- Created with Inkscape (http://www.inkscape.org/) -->

<svg
   version="1.1"
   id="svg9"
   width="200"
   height="200"
   viewBox="0 0 200 200"
   sodipodi:docname="hindsight.svg"
   inkscape:version="1.1 (c68e22c387, 2021-05-23)"
   xmlns:inkscape="http://www.inkscape.org/namespaces/inkscape"
   xmlns:sodipodi="http://sodipodi.sourceforge.net/DTD/sodipodi-0.dtd"
   xmlns="http://www.w3.org/2000/svg"
   xmlns:svg="http://www.w3.org/2000/svg">
   <filter id="displacementFilter">
      <feTurbulence type="turbulence" baseFrequency="0.05"
         numOctaves="3" result="turbulence"/>
      <feDisplacementMap in2="turbulence" in="SourceGraphic"
         scale="50" xChannelSelector="R" yChannelSelector="G"/>
   </filter>
  <defs
     id="defs13" />
  <sodipodi:namedview
     id="namedview11"
     pagecolor="#505050"
     bordercolor="#ffffff"
     borderopacity="1"
     inkscape:pageshadow="0"
     inkscape:pageopacity="0"
     inkscape:pagecheckerboard="1"
     showgrid="false"
     inkscape:zoom="3.915"
     inkscape:cx="87.739464"
     inkscape:cy="100"
     inkscape:window-width="1920"
     inkscape:window-height="1001"
     inkscape:window-x="-9"
     inkscape:window-y="-9"
     inkscape:window-maximized="1"
     inkscape:current-layer="g15" />
  <g
     inkscape:groupmode="layer"
     inkscape:label="Image"
     id="g15"
     style="display:inline">
      <path id="logo" style="filter: url(#displacementFilter);transform-origin:center;" fill="#182825" d="m 127.57602,161.66693 c -2.98262,-2.98262 -3.09679,-3.75918 -1.1159,-7.58981 1.66884,-3.22719 1.00547,-4.68557 -1.1506,-2.5295 -1.7572,1.75721 -7.44705,1.91485 -9.10952,0.25238 -0.66,-0.66 -1.2,-2.05759 -1.2,-3.10576 0,-1.59859 -0.46761,-1.40518 -2.90121,1.2 -2.60891,2.79285 -3.49325,3.10576 -8.77749,3.10576 -3.572507,0 -6.70559,-0.58087 -7.991601,-1.48162 -1.794537,-1.25695 -2.289195,-1.27211 -3.261958,-0.1 -1.358773,1.63722 -17.846117,1.98593 -19.753819,0.41779 -0.775436,-0.63741 -1.877883,-0.60471 -3.184258,0.0944 -2.864569,1.53307 -7.678308,1.31817 -9.109815,-0.40669 -0.710166,-0.8557 -1.073819,-3.37745 -0.865239,-6 0.434204,-5.45941 -0.817996,-6.03868 -1.67296,-0.77392 -1.279087,7.87645 -1.439506,8.00022 -10.420372,8.03944 -11.445755,0.05 -12.353561,-1.23655 -9.714852,-13.76775 0.885668,-4.20602 1.734174,-5.77022 3.653574,-6.73526 1.375,-0.69132 1.953333,-1.26358 1.285184,-1.27169 -1.794265,-0.0218 -3.492171,-3.78722 -2.755014,-6.1098 0.852676,-2.68654 4.988865,-4.23271 7.593708,-2.83864 2.812294,1.50509 2.21544,6.97209 -0.931453,8.53181 -1.945876,0.96445 -2.050944,1.2422 -0.670319,1.772 1.388069,0.53265 1.531299,1.61768 0.941078,7.12908 C 46.001357,143.81166 46.120163,146 46.816115,146 c 1.146662,0 1.659178,-1.43105 2.686052,-7.5 1.008069,-5.95781 1.842024,-6.5 9.997833,-6.5 8.862257,0 9.952306,0.94096 9.273525,8.00517 C 68.509558,142.75233 68.629384,145 69.039804,145 70.00543,145 71,142.38256 71,139.84129 71,136.52576 76.341475,132 80.2546,132 c 3.245469,0 3.460939,-0.22712 4.506268,-4.75 1.239725,-5.36397 1.130212,-5.56419 -3.926579,-7.17893 -2.016141,-0.6438 -5.793521,-3.04351 -8.394178,-5.3327 -17.707662,-15.586909 -9.287288,-44.270971 14.142641,-48.177011 3.382486,-0.5639 5.440702,-2.055022 12,-8.69368 8.889908,-8.997467 12.472758,-11.412172 14.268488,-9.616435 2.31567,2.315661 0.94252,4.48799 -9.10124,14.398243 -9.585078,9.457669 -10.5691,10.154129 -15.169033,10.736171 -19.732093,2.496754 -25.932731,26.704422 -9.750371,38.066042 3.772938,2.64897 5.189427,3.04101 11,3.0444 11.956164,0.007 19.516094,-6.41056 21.073794,-17.889345 0.7659,-5.643935 0.986,-5.962869 11.18844,-16.212419 7.27462,-7.308211 11.00609,-10.370813 12.39695,-10.174782 4.45857,0.628403 2.82177,3.93073 -6.77223,13.663278 -8.80907,8.93628 -9.52435,9.965432 -10.10295,14.536201 -1.19197,9.416297 -9.57166,19.341577 -18.536651,21.955647 l -4.483295,1.30727 -1.813423,11.34293 c -1.799965,11.25875 -1.534229,13.58504 1.422248,12.45053 1.165968,-0.44742 1.421186,-1.62575 1.055271,-4.87214 -0.424734,-3.76823 -0.153075,-4.54123 2.264162,-6.44263 3.665308,-2.88314 13.329798,-3.08587 15.822098,-0.3319 2.02976,2.24286 2.09753,4.02281 0.23197,6.09252 -1.1969,1.32787 -1.21198,1.97189 -0.0949,4.05284 1.29114,2.40518 1.34851,2.33554 2.05932,-2.5 1.0138,-6.8968 2.12611,-9.4741 4.08882,-9.4741 1.56396,0 1.56566,-0.12605 0.0247,-1.82874 C 118.74474,129.16545 118,127.37583 118,126.19431 c 0,-2.69327 4.2129,-5.5789 6.89988,-4.72609 3.88747,1.23384 3.86996,7.83528 -0.0241,9.07119 -1.86985,0.59347 -1.90103,0.77525 -0.41469,2.41764 1.35119,1.49304 1.43608,2.53943 0.53295,6.56936 -0.65467,2.92128 -0.71454,5.15313 -0.15329,5.71438 0.56124,0.56124 1.39767,-1.06632 2.14155,-4.16717 1.73242,-7.22153 4.42349,-9.07362 13.1839,-9.07362 5.20776,0 7.03748,0.36731 7.47213,1.5 1.05962,2.76132 2.12837,1.54119 2.84678,-3.25 1.03562,-6.90661 2.02077,-8.25 6.05003,-8.25 h 3.46482 v 5 5 h 3.4433 c 4.81572,0 6.60554,2.79201 5.85457,9.13279 -0.94946,8.01668 1.425,5.74018 2.84839,-2.73088 1.5372,-9.14836 2.4137,-10.51186 6.89903,-10.7322 2.85949,-0.14047 3.50854,0.20857 3.76713,2.02584 0.25632,1.80135 1.06428,2.25022 4.5,2.5 3.50162,0.25458 4.24111,0.68203 4.51434,2.60949 0.49771,3.51093 -1.55509,5.19496 -6.33257,5.19496 -3.41922,0 -4.36419,0.39489 -4.78368,1.999 -0.6669,2.55025 0.68917,3.42926 2.29863,1.48999 0.67966,-0.81894 2.75565,-1.48899 4.6133,-1.48899 2.96295,0 3.37756,0.31633 3.37756,2.57692 0,1.51485 -1.20475,3.78167 -2.92308,5.5 -2.4279,2.42791 -3.74542,2.92308 -7.77749,2.92308 -2.66993,0 -5.80631,-0.66673 -6.96973,-1.48162 -1.86862,-1.30883 -2.25872,-1.30883 -3.34495,0 -1.77876,2.14327 -7.33074,1.86177 -9.4492,-0.47909 -1.40917,-1.55712 -1.6343,-2.8951 -1.09371,-6.5 0.41951,-2.79751 0.29934,-4.53929 -0.31318,-4.53929 -1.07747,0 -1.61894,1.50759 -2.5678,7.14952 -0.74989,4.45876 -2.55337,6.09682 -6.24564,5.67274 -2.22238,-0.25526 -2.92201,-0.94599 -3.36503,-3.32226 -0.50992,-2.73513 -0.62741,-2.57201 -1.33064,1.8475 -1.6136,10.1407 -12.17945,16.18351 -18.04353,10.31943 z M 147.66228,142.75 c -0.27741,-0.6875 -0.50439,-0.125 -0.50439,1.25 0,1.375 0.22698,1.9375 0.50439,1.25 0.27741,-0.6875 0.27741,-1.8125 0,-2.5 z M 82,141.88197 c 0,-1.1 -0.45,-1.72189 -1,-1.38197 -0.55,0.33992 -1,1.51803 -1,2.61803 0,1.1 0.45,1.72189 1,1.38197 0.55,-0.33992 1,-1.51803 1,-2.61803 z m 56,0 c 0,-1.1 -0.45,-1.72189 -1,-1.38197 -0.55,0.33992 -1,1.51803 -1,2.61803 0,1.1 0.45,1.72189 1,1.38197 0.55,-0.33992 1,-1.51803 1,-2.61803 z m 10.69299,-4.61294 c -0.25354,-0.97297 -0.47766,-0.41903 -0.49804,1.23097 -0.0204,1.65 0.18706,2.44606 0.46099,1.76903 0.27392,-0.67703 0.29059,-2.02703 0.0371,-3 z M 10.329845,151.41718 c -0.8135522,-2.12008 3.291895,-25.25648 4.805206,-27.07991 0.693932,-0.83613 2.487624,-1.31322 4.279774,-1.13834 C 22.451272,123.49524 22.5,123.58687 22.5,129 c 0,5.3203 0.241086,5.68849 3.372192,5.15 0.479705,-0.0825 1.174442,-2.04017 1.54386,-4.35039 0.369418,-2.31021 1.157032,-4.78521 1.750253,-5.5 1.569247,-1.89082 6.764941,-1.64236 7.533419,0.36027 0.681668,1.77639 -2.26352,22.06262 -3.783506,26.06048 -0.774516,2.03714 -1.48071,2.35358 -4.664458,2.09011 C 24.517892,152.50148 24.5,152.47854 24.5,148 c 0,-3.80466 -0.303243,-4.5 -1.962485,-4.5 -1.467608,0 -2.197444,1.00868 -2.894237,4 -0.512463,2.2 -1.429345,4.33061 -2.037515,4.73469 -2.01591,1.3394 -6.647947,0.81895 -7.275918,-0.81751 z M 82.45863,111.17632 C 64.664789,102.8472 69.035297,76.626854 88.592139,74.379074 c 4.130863,-0.474783 5.773168,-0.108633 10.373516,2.312764 6.965955,3.666536 11.491585,11.241549 10.752235,17.997117 -1.4927,13.639045 -15.388724,22.043855 -27.25926,16.487365 z m 14.304285,-7.17321 c 6.865055,-4.185664 7.983795,-13.410242 2.314008,-19.080033 -8.111005,-8.111005 -21.910387,-1.533616 -20.747549,9.889188 0.941189,9.245495 10.514899,14.018885 18.433541,9.190845 z M 87.2,102.8 c -2.689807,-2.68981 -0.595534,-6.8 3.464816,-6.8 2.96329,0 4.788745,3.283997 3.335184,6 -1.18683,2.21761 -4.940751,2.65925 -6.8,0.8 z M 83.222506,93.443296 C 80.774008,91.728301 80.210955,87.189045 82.2,85.2 84.265255,83.134745 88.80423,83.771583 90.503515,86.365021 92.864092,89.967716 90.321546,95 86.140719,95 85.75808,95 84.444885,94.299483 83.222506,93.443296 Z M 95.25,94.333333 c -1.839252,-0.7357 -1.521782,-5.015063 0.427541,-5.763088 2.449669,-0.940027 5.091029,1.987769 3.734066,4.139 -1.19634,1.896592 -2.352427,2.34776 -4.161607,1.624088 z M 110.36163,79.5 C 109.46413,77.161165 110.73123,75 113,75 c 2.54422,0 3.65103,2.510636 1.98943,4.512735 -1.58792,1.913332 -3.89113,1.906994 -4.6278,-0.01274 z m -9.69496,-6.166667 c -1.550894,-1.550891 -0.34289,-3.82126 5.03074,-9.454944 4.46683,-4.683006 6.24689,-5.908907 8.24145,-5.675762 4.34108,0.507429 3.60322,3.377533 -2.51818,9.79518 -5.31624,5.573521 -8.7917,7.297844 -10.75401,5.335526 z m 16,-1 c -1.79116,-1.791156 0.0242,-4.652908 7.71114,-12.155951 C 128.98561,55.679822 133.20551,52 133.75537,52 c 1.76568,0 3.42869,2.84472 2.80739,4.802272 -0.33137,1.044036 -3.92059,5.115631 -7.97604,9.047988 -6.69687,6.493592 -10.07321,8.329914 -11.92005,6.483073 z M 117.75,58.251829 c -2.65145,-0.60374 -2.09871,-4.05696 1.17308,-7.328752 3.38332,-3.383325 5.58718,-3.70668 7.01972,-1.02995 1.74044,3.252033 -4.16403,9.27606 -8.1928,8.358702 z"/>
      <path id="logo" style="filter: url(#displacementFilter);transform-origin:center;" fill="#BFC3BA" d="m 128.22251,161.4433 c -2.51485,-1.76147 -2.83466,-5.05133 -0.75757,-7.79299 1.05915,-1.39803 1.14291,-2.41687 0.34302,-4.17244 -1.49891,-3.28977 -0.10847,-11.0357 2.50612,-13.96116 2.2695,-2.53933 4.01624,-2.93393 11.82893,-2.67223 2.74906,0.0921 4.84534,0.68279 5.13903,1.44811 0.62253,1.6223 -2.7948,19.92848 -4.21585,22.58374 -2.94605,5.50475 -10.28229,7.76189 -14.84368,4.56697 z m 8.17118,-7.02686 c 0.37373,-0.97391 0.15024,-1.43108 -0.58051,-1.1875 -1.49484,0.49828 -2.31789,2.77106 -1.0035,2.77106 0.53699,0 1.24979,-0.7126 1.58401,-1.58356 z m 1.99932,-9.99823 c 1.0099,-2.63176 0.68205,-5.6099 -0.57157,-5.19202 -1.86454,0.62151 -3.19826,3.34945 -2.51197,5.13789 0.79701,2.07697 2.2972,2.1033 3.08354,0.0541 z m -99.284242,6.94542 C 36.953557,149.85406 36.824747,149.26567 37.44647,143.77037 38.467021,134.74989 39.384223,133 43.091746,133 h 3.141248 l -0.677552,6.32688 c -0.53179,4.96578 -0.360874,6.58971 0.794475,7.54856 1.86947,1.55152 2.215069,0.93667 3.557494,-6.32915 0.605,-3.27453 1.438846,-6.29255 1.85299,-6.70669 1.13777,-1.13777 14.09036,-1.38955 15.179225,-0.29507 0.522808,0.52551 1.087768,3.61992 1.255467,6.87647 0.37212,7.22621 2.294148,8.47066 3.24895,2.10358 1.092933,-7.2882 3.7555,-9.48484 12.675115,-10.45709 0.340536,-0.0371 0.881261,-1.68264 1.201609,-3.65672 C 86.023617,124.07961 87.591433,122 90.15383,122 c 2.990609,0 3.327468,2.66472 1.599805,12.65525 -1.253943,7.25116 -1.355611,9.93898 -0.465177,12.29801 1.382234,3.66195 0.127076,5.38889 -3.713458,5.10924 -3.172016,-0.23097 -6.626904,-0.21064 -10.622619,0.0625 -1.703123,0.11642 -3.7503,-0.49435 -4.640412,-1.38446 -1.457057,-1.45706 -1.820284,-1.4246 -4.262293,0.38085 -2.162427,1.59876 -3.180484,1.77938 -5.359588,0.95088 C 60.180816,151.11825 60,150.64454 60,145.02475 60,138.80249 58.508686,136.9105 57.418771,141.75 55.152967,151.81076 55.0533,152 52.020473,152 c -1.596341,0 -3.161618,-0.41936 -3.478391,-0.93191 -0.334411,-0.54109 -1.722143,-0.33398 -3.309017,0.49384 -3.40252,1.77498 -3.302417,1.77822 -6.124297,-0.1983 z m 43.689489,-9.6978 c -0.164041,-1.10504 -0.84416,-2.18889 -1.511375,-2.40854 -1.395589,-0.45944 -2.814268,4.08037 -1.791998,5.73443 1.052899,1.70363 3.660292,-0.92154 3.303373,-3.32589 z m 15.037756,10.20056 c -3.558632,-1.30339 -4.472796,-3.93234 -2.04968,-5.89446 1.732931,-1.40324 1.771275,-1.75257 0.416359,-3.79318 -4.341228,-6.53824 9.829158,-13.54684 16.386538,-8.1047 1.87403,1.55531 1.7944,4.61188 -0.14848,5.69917 -1.30727,0.73158 -1.36213,1.30523 -0.33948,3.54969 1.80216,3.95532 -0.0598,7.29403 -4.80225,8.61097 -4.48696,1.246 -5.90439,1.23589 -9.463007,-0.0675 z m 20.553087,0.1539 c -3.02593,-1.22266 -3.44123,-3.13857 -2.21905,-10.23709 1.25704,-7.30104 2.18243,-8.7832 5.48378,-8.7832 3.10103,0 3.66436,1.62869 2.44319,7.06373 -0.78213,3.481 -0.68671,4.73218 0.45731,5.9963 2.0066,2.21727 1.81133,3.57045 -0.77684,5.38327 -2.49992,1.75101 -2.48643,1.74956 -5.38839,0.57699 z m 43.75166,-0.63425 c -1.98915,-1.39326 -2.25889,-2.31632 -1.97251,-6.75 C 160.4296,140.58989 160.18169,139.5 159,139.5 c -0.94089,0 -1.81858,1.49097 -2.35468,4 -1.49698,7.00601 -2.40308,8.5 -5.15527,8.5 -1.40405,0 -2.79176,-0.62268 -3.0838,-1.38372 -0.29205,-0.76105 0.50958,-7.12523 1.78138,-14.14263 2.45391,-13.53986 3.89491,-16.17963 7.56237,-13.85343 1.33162,0.84462 1.67274,2.17028 1.42686,5.54489 L 158.85371,132.6 h 3.69032 c 5.05941,0 6.75933,2.44879 5.92987,8.54215 -0.396,2.9091 -0.22908,4.89112 0.44709,5.30902 2.03437,1.25731 1.15083,4.57103 -1.48609,5.57358 -3.15434,1.19928 -2.56927,1.26986 -5.29414,-0.63871 z M 177,152.29056 c -2.90676,-1.06879 -5,-3.62826 -5,-6.11363 0,-5.04303 2.25658,-15.29065 3.68067,-16.71474 2.32434,-2.32435 6.12318,-1.86391 6.49978,0.78781 0.26649,1.87642 1.03525,2.30155 4.63014,2.56046 4.02665,0.29001 4.29013,0.48762 4,3 -0.28161,2.43862 -0.77626,2.73619 -5.30191,3.18954 -5.12001,0.51289 -6.48274,2.01926 -5.09597,5.63313 0.49435,1.28825 0.97854,1.20427 3.21943,-0.55842 3.12873,-2.46105 4.6847,-2.6028 6.36371,-0.57972 3.28741,3.96109 -7.07335,10.97324 -12.99585,8.79557 z m -165.983544,-2.9772 c 0.02155,-3.6838 3.472341,-22.6772 4.389782,-24.16165 C 15.797726,124.51827 17.482842,124 19.150941,124 h 3.032907 l -0.341924,5.25 c -0.329932,5.06587 -0.246698,5.26098 2.373198,5.56306 2.271151,0.26186 2.816887,-0.14693 3.337471,-2.5 1.524848,-6.89241 2.076796,-7.81014 4.896348,-8.14124 1.537087,-0.1805 3.169383,0.0465 3.627325,0.50445 0.99607,0.99607 -2.900579,24.26094 -4.375576,26.12429 -0.566224,0.7153 -2.193016,1.1653 -3.615094,1 C 25.73238,151.52701 25.5,151.09556 25.5,147 c 0,-4.07864 -0.223886,-4.5 -2.391014,-4.5 -2.493779,0 -3.284064,0.99613 -4.760137,6 -0.714517,2.4222 -1.507428,3.06035 -4.116904,3.31336 -2.954122,0.28642 -3.23053,0.0715 -3.215489,-2.5 z m 29.448418,-20.3702 c -1.086057,-1.75727 0.417104,-5.77093 2.396573,-6.39918 3.994609,-1.26784 6.488257,1.30827 5.039376,5.20602 -0.610104,1.64129 -1.640737,2.25 -3.809582,2.25 -1.635264,0 -3.267129,-0.47558 -3.626367,-1.05684 z m 79.201796,0.39017 c -1.62182,-1.62182 -0.56779,-5.42126 1.80372,-6.50179 4.15267,-1.89209 7.53186,2.76621 4.32961,5.96846 -1.29351,1.29351 -5.04679,1.61988 -6.13333,0.53333 z M 84,120.12439 C 75.063624,117.18348 69.290858,112.11729 65.721062,104.08276 62.7936,97.493923 63.65655,86.715252 67.628228,80.261309 71.380395,74.164073 78.442857,69.406994 85.929488,67.93409 91.389404,66.859917 92.303742,66.23441 100.60524,57.894273 109.07761,49.382462 113,47.088815 113,50.646341 c 0,0.905488 -4.43415,6.080488 -9.85366,11.5 -7.924079,7.924081 -10.420829,9.854751 -12.749999,9.859236 -10.57419,0.02036 -19.790134,8.128701 -21.793252,19.174066 -2.188431,12.067197 8.889975,24.739657 21.67903,24.798397 11.653191,0.0535 20.129401,-7.67013 21.835141,-19.896517 0.7231,-5.183026 1.18238,-5.846692 10.56935,-15.273017 5.39736,-5.419997 10.4511,-9.731682 11.23052,-9.581523 3.33313,0.642142 1.72219,3.420279 -7.32004,12.623754 C 119.50126,91.073097 117,94.287409 117,96.183751 c 0,7.687289 -6.0857,16.912229 -13.99791,21.218599 -5.465132,2.97449 -14.362211,4.249 -19.00209,2.72204 z m -1.578599,-9.96473 c -13.758138,-6.4375 -13.710891,-26.484283 0.07815,-33.159444 15.574365,-7.53942 32.039649,8.925866 24.500229,24.500234 -4.34716,8.98004 -15.497228,12.90832 -24.578381,8.65921 z m 15.170442,-5.62788 c 3.730117,-2.44407 5.741487,-6.308751 5.741487,-11.03178 0,-7.651749 -5.228871,-12.833333 -12.950454,-12.833333 -5.392152,0 -9.131633,2.450719 -11.736009,7.691352 -5.647785,11.364707 8.218066,23.202301 18.944976,16.173761 z m -9.879267,-2.15254 c -1.349971,-1.34997 -0.708516,-4.311045 1.149284,-5.30531 2.43417,-1.302728 5.492374,0.838221 4.98833,3.49217 -0.370808,1.95242 -4.714999,3.23576 -6.137614,1.81314 z M 83.2,92.8 c -1.542501,-1.542501 -1.542501,-5.057499 0,-6.6 1.83712,-1.83712 5.607686,-1.42786 6.764816,0.734259 1.406399,2.627879 1.306485,3.651583 -0.536245,5.494312 C 87.557052,94.300091 84.860873,94.460873 83.2,92.8 Z m 12.135833,-0.367217 c -0.83346,-2.171962 1.282435,-4.214515 2.79695,-2.7 C 99.412816,91.012816 98.619834,94 97,94 96.415477,94 95.666601,93.294752 95.335833,92.432783 Z M 111.65799,79.324657 C 111.2961,78.962762 111,78.066667 111,77.333333 c 0,-1.489699 2.57786,-1.82538 3.42997,-0.44664 0.68055,1.10115 -1.86765,3.342296 -2.77198,2.437964 z M 101.43861,71.900672 C 100.67886,70.671367 111.73538,59 113.65968,59 c 3.17964,0 2.09941,2.685453 -3.25797,8.099328 -5.82594,5.887366 -7.67856,6.879776 -8.9631,4.801344 z m 15.99667,-1.005397 c -0.92851,-1.502351 15.45018,-17.87646 17.20708,-17.202274 2.51525,0.965193 1.38924,2.822506 -6.41448,10.580459 -7.71072,7.665498 -9.47759,8.749558 -10.7926,6.621815 z m 0.0145,-14.976535 C 116.7781,54.831942 121.64065,49 123.21848,49 c 2.02791,0 1.87075,3.276115 -0.26628,5.550881 -2.465,2.623875 -4.42503,3.111121 -5.50242,1.367859 z"/>
      <path id="logo" style="filter: url(#displacementFilter);transform-origin:center;" fill="#0075A2" d="m 128.00477,160.50575 c -0.74637,-0.89933 -0.9776,-2.59145 -0.58075,-4.25 0.36265,-1.51566 0.75311,-6.28229 0.86767,-10.59251 0.19273,-7.2506 0.4211,-8.01979 3.05326,-10.28371 2.51532,-2.16343 3.54181,-2.39172 8.8595,-1.9704 3.308,0.2621 6.2564,0.71839 6.55199,1.01398 0.29559,0.29559 -0.40117,5.33047 -1.54835,11.18862 C 142.66223,158.6123 140.22862,162 133.43535,162 c -2.49774,0 -4.6914,-0.6036 -5.43058,-1.49425 z m 8.81478,-6.33408 C 136.9953,152.97725 136.7129,152 136.192,152 c -1.53389,0 -3.42239,2.81821 -2.68645,4.00898 1.03159,1.66915 2.95495,0.60283 3.314,-1.83731 z m 2.72624,-11.38013 c 0.45084,-2.05267 0.23779,-3.30726 -0.65536,-3.85926 -2.69907,-1.66812 -6.05014,3.96543 -3.89994,6.55627 1.68818,2.03412 3.7894,0.79007 4.5553,-2.69701 z m -100.449366,8.28922 c -1.073843,-0.67987 -1.264089,-2.38236 -0.80982,-7.24702 0.893412,-9.56734 2.560466,-12.17434 6.084417,-9.51506 1.299114,0.98036 1.391604,1.94102 0.543685,5.64707 -0.745631,3.25897 -0.701136,5.06479 0.164656,6.68254 0.652514,1.21923 0.915719,2.92215 0.584899,3.78425 -0.654561,1.70576 -4.325229,2.06803 -6.567837,0.64822 z m 22.452961,-0.67423 c -1.231814,-1.23182 -1.445748,-2.70707 -0.942598,-6.5 C 61.202539,139.41553 61.084101,139 59.208286,139 c -1.481649,0 -2.209898,0.83107 -2.628831,3 -0.3187,1.65 -0.84021,4.35 -1.15891,6 -0.48602,2.51626 -1.050385,3 -3.5,3 C 50.314245,151 49,150.48938 49,149.8653 c 0,-2.46563 2.362888,-14.41213 2.996616,-15.15057 0.370654,-0.43189 3.422537,-0.98776 6.781963,-1.23525 7.785533,-0.57358 9.671359,0.89789 8.678939,6.77197 -0.425728,2.51986 -0.210899,4.84084 0.585865,6.32961 2.322586,4.33979 -2.901992,7.41747 -6.493998,3.82547 z m 11.498436,-0.35871 c -1.182569,-1.18257 -1.941401,-2.91461 -1.686292,-3.84897 0.255108,-0.93437 0.74486,-3.36685 1.088336,-5.40552 C 73.213904,136.25847 77.009503,133 81.52787,133 84.924568,133 86,131.70582 86,127.61821 86,126.3982 86.54,124.86 87.2,124.2 c 1.401469,-1.40147 4.441852,-1.58851 5.224948,-0.32144 0.29864,0.48321 -0.287868,5.42151 -1.303351,10.97399 -1.62373,8.87828 -1.671615,10.34488 -0.397172,12.1644 2.112095,3.01544 -0.03872,5.36441 -4.167543,4.55151 -3.799098,-0.74799 -4.313409,-0.74712 -8.207909,0.0138 -2.428351,0.47447 -3.64415,0.12255 -5.301152,-1.53445 z m 10.035357,-6.7666 c 1.4015,-3.68622 -0.63789,-5.99418 -3.22656,-3.65146 -2.113082,1.91231 -2.398912,4.42795 -0.696537,6.13032 1.481668,1.48167 2.713153,0.70354 3.923097,-2.47886 z m 13.504342,7.4427 c -1.256364,-0.9425 -1.678432,-2.04463 -1.230264,-3.21253 0.566443,-1.47613 1.442523,-1.67362 5.162484,-1.16374 2.6793,0.36724 4.48026,0.2198 4.48026,-0.36678 C 105,145.44139 103.97513,145 102.72251,145 c -5.757291,0 -8.718626,-5.88356 -4.76309,-9.46328 2.83706,-2.5675 10.37358,-3.20377 13.52099,-1.14151 3.18649,2.08787 3.18452,3.34471 -0.008,4.7991 -1.91632,0.87314 -2.8106,0.86796 -3.7,-0.0214 -1.55155,-1.55155 -5.05252,-1.51182 -4.53144,0.0514 0.22446,0.67336 1.76374,1.50155 3.42063,1.84042 1.65688,0.33887 3.53574,0.93949 4.17523,1.33472 1.68953,1.04418 1.42459,6.13833 -0.39791,7.65087 -2.35582,1.95516 -11.547681,2.40215 -13.85186,0.67361 z m 20.39132,-0.24941 c -1.71585,-2.06748 0.26864,-14.45109 2.58753,-16.1467 3.25489,-2.38003 4.68499,-0.49516 3.96945,5.23177 -0.44167,3.53506 -0.24649,5.93084 0.59264,7.27451 1.00826,1.61448 0.9964,2.31053 -0.0611,3.58471 -1.66783,2.00961 -5.44233,2.03927 -7.08855,0.0557 z M 162.2,150.8 c -0.66,-0.66 -1.2,-3.6163 -1.2,-6.56955 0,-4.98443 -0.16009,-5.34663 -2.23208,-5.05 -1.84433,0.26404 -2.41175,1.27501 -3.26632,5.81955 -0.92967,4.94399 -1.31059,5.53199 -3.76791,5.81642 -2.2993,0.26614 -2.73369,-0.0607 -2.73369,-2.05711 0,-3.94169 3.9382,-24.09751 4.89538,-25.05469 0.4907,-0.4907 1.72748,-0.72714 2.7484,-0.52543 1.50962,0.29826 1.85622,1.29324 1.85622,5.32855 v 4.96181 l 3.57638,-0.29643 c 4.87953,-0.40445 6.36821,1.56657 5.5718,7.37707 -0.37587,2.74226 -0.16969,5.24312 0.5238,6.35359 0.62902,1.00721 0.86177,2.5659 0.51723,3.46375 -0.73069,1.90413 -4.74971,2.17197 -6.48921,0.43247 z m 12.19244,-1.31665 c -1.45593,-1.45593 -2.31653,-3.24722 -2.04186,-4.25 0.26113,-0.95334 0.75447,-3.53335 1.0963,-5.73335 1.27812,-8.22577 1.68362,-9.23843 4.14929,-10.36186 3.26227,-1.48639 3.2131,-1.50165 3.58428,1.11186 0.25526,1.79735 1.05866,2.31153 3.99344,2.55583 7.8043,0.64966 7.18725,6.19417 -0.68935,6.19417 -4.25489,0 -5.48454,1.03428 -5.48454,4.61317 0,2.27077 2.88044,2.80501 4.96284,0.92046 2.06523,-1.869 5.1306,-1.75692 5.78602,0.21156 0.22803,0.68486 -0.93756,2.59736 -2.59021,4.25 -3.933,3.93301 -9.12291,4.13146 -12.76621,0.48816 z m -162.702955,0.82324 c -0.274664,-0.44441 0.47034,-6.12883 1.655563,-12.63203 2.19389,-12.03766 3.486466,-14.44392 7.028696,-13.08464 1.158935,0.44473 1.493169,1.8837 1.335943,5.7516 -0.200957,4.94372 -0.09522,5.17165 2.539828,5.47486 2.193871,0.25244 2.951701,-0.21542 3.75,-2.3151 C 28.549782,132.05396 29,129.78993 29,128.47008 c 0,-1.34619 0.846232,-2.8526 1.927558,-3.43131 2.176567,-1.16486 5.08019,-0.40801 5.057256,1.31822 -0.04218,3.17489 -4.116857,23.17505 -4.876208,23.9344 -0.482865,0.48287 -1.935075,0.72734 -3.227135,0.54327 -2.110663,-0.30068 -2.317178,-0.77325 -2.033852,-4.6541 l 0.315346,-4.31943 -3.305278,0.31943 c -2.91106,0.28134 -3.437707,0.79652 -4.415626,4.31944 -0.885784,3.19101 -1.630409,4.06215 -3.681768,4.30731 -1.414281,0.16902 -2.796145,-0.0563 -3.070808,-0.50072 z M 41.384042,128.55841 C 40.212414,125.5052 41.447609,123.5 44.5,123.5 c 2.143689,0 3.076465,0.53927 3.345046,1.9339 0.648057,3.3651 -5.270382,6.22723 -6.461004,3.12451 z m 78.546388,-0.14223 c -1.77644,-2.14049 0.0105,-4.91618 3.16486,-4.91618 2.72109,0 3.74779,2.77923 1.86484,5.04804 -1.56829,1.88967 -3.39165,1.84187 -5.0297,-0.13186 z m -37.725472,-9.31041 c -6.974934,-2.40918 -12.122969,-6.70552 -15.200479,-12.6857 -3.267299,-6.34898 -3.540933,-17.831144 -0.567743,-23.823472 3.932562,-7.9259 10.680253,-12.912683 19.813889,-14.643165 4.776353,-0.90494 6.062059,-1.803698 14.268165,-9.973996 C 108.85004,49.684536 113,47.120467 113,50.267867 c 0,0.697327 -4.62018,5.872327 -10.26707,11.5 C 93.683162,70.786832 92.0529,72.002604 88.982925,72.021962 80.283631,72.076816 71.007335,80.139679 68.921784,89.458901 65.888756,103.0119 76.429963,115.95608 90.5,115.95608 c 12.31198,0 22.5,-10.76492 22.5,-23.774063 C 113,90.276484 131.8459,71 133.70887,71 c 3.4157,0 1.59948,3.088504 -6.95679,11.830079 -8.80516,8.995859 -9.51051,10.018456 -10.11871,14.669921 -1.35249,10.34375 -8.84004,18.9522 -19.195034,22.06859 -6.141924,1.84845 -8.773371,1.7685 -15.233378,-0.46282 z m 4.480267,-8.15704 c -4.573189,-0.78516 -8.358576,-3.42687 -11.521737,-8.04068 -3.166005,-4.617953 -2.809579,-14.787587 0.690554,-19.703071 7.195013,-10.104464 23.457947,-9.354234 29.744018,1.372131 7.83073,13.362128 -3.40829,29.03355 -18.912835,26.37162 z m 11.016226,-5.90825 C 109.18308,98.039724 103.995,80 90.5,80 c -7.994829,0 -13.489721,5.849669 -13.496262,14.367647 -0.0033,4.32331 0.430416,5.301801 3.878615,8.750003 3.448199,3.4482 4.42669,3.88193 8.75,3.87861 3.062151,-0.002 6.055122,-0.72778 8.069098,-1.95578 z m -9.311464,-3.46657 C 87.480191,99.203016 88.76749,96.808574 90.746976,97.189788 91.853999,97.402982 92.5,98.438563 92.5,100 c 0,2.85063 -3.156276,4.05931 -4.110013,1.57391 z M 83.039826,91.547988 c -1.450683,-1.747966 -0.5567,-5.135667 1.570683,-5.952021 C 86.578522,84.84077 90,86.654788 90,88.453396 c 0,4.341381 -4.328301,6.265805 -6.960174,3.094592 z M 95.693853,92.36052 C 94.894922,91.561589 95.798039,90 97.059017,90 97.576558,90 98,90.675 98,91.5 c 0,1.54641 -1.179963,1.986704 -2.306147,0.86052 z M 111,77.5 c 0,-0.825 0.675,-1.5 1.5,-1.5 0.825,0 1.5,0.675 1.5,1.5 0,0.825 -0.675,1.5 -1.5,1.5 -0.825,0 -1.5,-0.675 -1.5,-1.5 z m -9.56139,-5.599328 C 100.67886,70.671367 111.73538,59 113.65968,59 c 3.17964,0 2.09941,2.685453 -3.25797,8.099328 -5.82594,5.887366 -7.67856,6.879776 -8.9631,4.801344 z m 15.99717,-1.004583 C 116.5433,69.452028 131.899,54 134.22654,54 c 3.27872,0 1.81664,2.503992 -5.99866,10.27346 -7.71,7.664773 -9.47763,8.74949 -10.7921,6.622629 z m 0.014,-14.977349 C 116.7781,54.831942 121.64065,49 123.21848,49 c 2.02791,0 1.87075,3.276115 -0.26628,5.550881 -2.465,2.623875 -4.42503,3.111121 -5.50242,1.367859 z"/>
      <path id="logo" style="filter: url(#displacementFilter);transform-origin:center;" fill="#BFC3BA" d="m 128.00477,160.50575 c -0.74637,-0.89933 -0.9776,-2.59145 -0.58075,-4.25 0.36265,-1.51566 0.75311,-6.28229 0.86767,-10.59251 0.19273,-7.2506 0.4211,-8.01979 3.05326,-10.28371 2.51532,-2.16343 3.54181,-2.39172 8.8595,-1.9704 3.308,0.2621 6.2564,0.71839 6.55199,1.01398 0.29559,0.29559 -0.40117,5.33047 -1.54835,11.18862 C 142.66223,158.6123 140.22862,162 133.43535,162 c -2.49774,0 -4.6914,-0.6036 -5.43058,-1.49425 z m 8.81478,-6.33408 C 136.9953,152.97725 136.7129,152 136.192,152 c -1.53389,0 -3.42239,2.81821 -2.68645,4.00898 1.03159,1.66915 2.95495,0.60283 3.314,-1.83731 z m 2.72624,-11.38013 c 0.45084,-2.05267 0.23779,-3.30726 -0.65536,-3.85926 -2.69907,-1.66812 -6.05014,3.96543 -3.89994,6.55627 1.68818,2.03412 3.7894,0.79007 4.5553,-2.69701 z m -100.449366,8.28922 c -1.073843,-0.67987 -1.264089,-2.38236 -0.80982,-7.24702 0.893412,-9.56734 2.560466,-12.17434 6.084417,-9.51506 1.299114,0.98036 1.391604,1.94102 0.543685,5.64707 -0.745631,3.25897 -0.701136,5.06479 0.164656,6.68254 0.652514,1.21923 0.915719,2.92215 0.584899,3.78425 -0.654561,1.70576 -4.325229,2.06803 -6.567837,0.64822 z m 22.452961,-0.67423 c -1.231814,-1.23182 -1.445748,-2.70707 -0.942598,-6.5 C 61.202539,139.41553 61.084101,139 59.208286,139 c -1.481649,0 -2.209898,0.83107 -2.628831,3 -0.3187,1.65 -0.84021,4.35 -1.15891,6 -0.48602,2.51626 -1.050385,3 -3.5,3 C 50.314245,151 49,150.48938 49,149.8653 c 0,-2.46563 2.362888,-14.41213 2.996616,-15.15057 0.370654,-0.43189 3.422537,-0.98776 6.781963,-1.23525 7.785533,-0.57358 9.671359,0.89789 8.678939,6.77197 -0.425728,2.51986 -0.210899,4.84084 0.585865,6.32961 2.322586,4.33979 -2.901992,7.41747 -6.493998,3.82547 z m 11.498436,-0.35871 c -1.182569,-1.18257 -1.941401,-2.91461 -1.686292,-3.84897 0.255108,-0.93437 0.74486,-3.36685 1.088336,-5.40552 C 73.213904,136.25847 77.009503,133 81.52787,133 84.924568,133 86,131.70582 86,127.61821 86,126.3982 86.54,124.86 87.2,124.2 c 1.401469,-1.40147 4.441852,-1.58851 5.224948,-0.32144 0.29864,0.48321 -0.287868,5.42151 -1.303351,10.97399 -1.62373,8.87828 -1.671615,10.34488 -0.397172,12.1644 2.112095,3.01544 -0.03872,5.36441 -4.167543,4.55151 -3.799098,-0.74799 -4.313409,-0.74712 -8.207909,0.0138 -2.428351,0.47447 -3.64415,0.12255 -5.301152,-1.53445 z m 10.035357,-6.7666 c 1.4015,-3.68622 -0.63789,-5.99418 -3.22656,-3.65146 -2.113082,1.91231 -2.398912,4.42795 -0.696537,6.13032 1.481668,1.48167 2.713153,0.70354 3.923097,-2.47886 z m 13.504342,7.4427 c -1.256364,-0.9425 -1.678432,-2.04463 -1.230264,-3.21253 0.566443,-1.47613 1.442523,-1.67362 5.162484,-1.16374 2.6793,0.36724 4.48026,0.2198 4.48026,-0.36678 C 105,145.44139 103.97513,145 102.72251,145 c -5.757291,0 -8.718626,-5.88356 -4.76309,-9.46328 2.83706,-2.5675 10.37358,-3.20377 13.52099,-1.14151 3.18649,2.08787 3.18452,3.34471 -0.008,4.7991 -1.91632,0.87314 -2.8106,0.86796 -3.7,-0.0214 -1.55155,-1.55155 -5.05252,-1.51182 -4.53144,0.0514 0.22446,0.67336 1.76374,1.50155 3.42063,1.84042 1.65688,0.33887 3.53574,0.93949 4.17523,1.33472 1.68953,1.04418 1.42459,6.13833 -0.39791,7.65087 -2.35582,1.95516 -11.547681,2.40215 -13.85186,0.67361 z m 20.39132,-0.24941 c -1.71585,-2.06748 0.26864,-14.45109 2.58753,-16.1467 3.25489,-2.38003 4.68499,-0.49516 3.96945,5.23177 -0.44167,3.53506 -0.24649,5.93084 0.59264,7.27451 1.00826,1.61448 0.9964,2.31053 -0.0611,3.58471 -1.66783,2.00961 -5.44233,2.03927 -7.08855,0.0557 z M 162.2,150.8 c -0.66,-0.66 -1.2,-3.6163 -1.2,-6.56955 0,-4.98443 -0.16009,-5.34663 -2.23208,-5.05 -1.84433,0.26404 -2.41175,1.27501 -3.26632,5.81955 -0.92967,4.94399 -1.31059,5.53199 -3.76791,5.81642 -2.2993,0.26614 -2.73369,-0.0607 -2.73369,-2.05711 0,-3.94169 3.9382,-24.09751 4.89538,-25.05469 0.4907,-0.4907 1.72748,-0.72714 2.7484,-0.52543 1.50962,0.29826 1.85622,1.29324 1.85622,5.32855 v 4.96181 l 3.57638,-0.29643 c 4.87953,-0.40445 6.36821,1.56657 5.5718,7.37707 -0.37587,2.74226 -0.16969,5.24312 0.5238,6.35359 0.62902,1.00721 0.86177,2.5659 0.51723,3.46375 -0.73069,1.90413 -4.74971,2.17197 -6.48921,0.43247 z m 12.19244,-1.31665 c -1.45593,-1.45593 -2.31653,-3.24722 -2.04186,-4.25 0.26113,-0.95334 0.75447,-3.53335 1.0963,-5.73335 1.27812,-8.22577 1.68362,-9.23843 4.14929,-10.36186 3.26227,-1.48639 3.2131,-1.50165 3.58428,1.11186 0.25526,1.79735 1.05866,2.31153 3.99344,2.55583 7.8043,0.64966 7.18725,6.19417 -0.68935,6.19417 -4.25489,0 -5.48454,1.03428 -5.48454,4.61317 0,2.27077 2.88044,2.80501 4.96284,0.92046 2.06523,-1.869 5.1306,-1.75692 5.78602,0.21156 0.22803,0.68486 -0.93756,2.59736 -2.59021,4.25 -3.933,3.93301 -9.12291,4.13146 -12.76621,0.48816 z m -162.702955,0.82324 c -0.274664,-0.44441 0.47034,-6.12883 1.655563,-12.63203 2.19389,-12.03766 3.486466,-14.44392 7.028696,-13.08464 1.158935,0.44473 1.493169,1.8837 1.335943,5.7516 -0.200957,4.94372 -0.09522,5.17165 2.539828,5.47486 2.193871,0.25244 2.951701,-0.21542 3.75,-2.3151 C 28.549782,132.05396 29,129.78993 29,128.47008 c 0,-1.34619 0.846232,-2.8526 1.927558,-3.43131 2.176567,-1.16486 5.08019,-0.40801 5.057256,1.31822 -0.04218,3.17489 -4.116857,23.17505 -4.876208,23.9344 -0.482865,0.48287 -1.935075,0.72734 -3.227135,0.54327 -2.110663,-0.30068 -2.317178,-0.77325 -2.033852,-4.6541 l 0.315346,-4.31943 -3.305278,0.31943 c -2.91106,0.28134 -3.437707,0.79652 -4.415626,4.31944 -0.885784,3.19101 -1.630409,4.06215 -3.681768,4.30731 -1.414281,0.16902 -2.796145,-0.0563 -3.070808,-0.50072 z M 41.384042,128.55841 C 40.212414,125.5052 41.447609,123.5 44.5,123.5 c 2.143689,0 3.076465,0.53927 3.345046,1.9339 0.648057,3.3651 -5.270382,6.22723 -6.461004,3.12451 z m 78.546388,-0.14223 c -1.77644,-2.14049 0.0105,-4.91618 3.16486,-4.91618 2.72109,0 3.74779,2.77923 1.86484,5.04804 -1.56829,1.88967 -3.39165,1.84187 -5.0297,-0.13186 z M 83.36471,118.97032 C 64.81786,113.24376 58.648914,89.705384 72.127974,76.095161 75.966722,72.219059 81.708116,69.390122 87.67125,68.436579 91.114942,67.88591 93.149324,66.384892 100.60792,58.891577 108.52104,50.941623 112,48.461045 112,50.768762 c 0,0.422819 -4.39555,5.147819 -9.76789,10.5 C 94.883751,68.589547 91.818611,71 89.857836,71 85.484374,71 78.68957,73.910243 75.166097,77.292532 68.60629,83.58949 66.189156,91.438257 68.301678,99.58224 c 4.418898,17.03529 25.006726,23.1332 37.533642,11.11708 4.46455,-4.2825 6.37506,-8.11746 7.2818,-14.616727 0.71912,-5.154446 1.20693,-5.870413 10.04959,-14.75 C 131.42662,73.038193 135,70.440777 135,72.731211 c 0,0.402166 -4.11034,4.858708 -9.13408,9.903427 -8.39086,8.425899 -9.19909,9.58348 -9.93307,14.226621 -1.47917,9.357201 -6.34122,16.265781 -14.30755,20.329901 -4.547831,2.32013 -13.639578,3.20595 -18.26059,1.77916 z m 3.320515,-8.02159 c -4.573189,-0.78516 -8.358576,-3.42687 -11.521737,-8.04068 -3.166005,-4.617953 -2.809579,-14.787587 0.690554,-19.703071 7.195013,-10.104464 23.457947,-9.354234 29.744018,1.372131 7.83073,13.362128 -3.40829,29.03355 -18.912835,26.37162 z m 11.016226,-5.90825 C 109.18308,98.039724 103.995,80 90.5,80 c -7.994829,0 -13.489721,5.849669 -13.496262,14.367647 -0.0033,4.32331 0.430416,5.301801 3.878615,8.750003 3.448199,3.4482 4.42669,3.88193 8.75,3.87861 3.062151,-0.002 6.055122,-0.72778 8.069098,-1.95578 z m -9.311464,-3.46657 C 87.480191,99.203016 88.76749,96.808574 90.746976,97.189788 91.853999,97.402982 92.5,98.438563 92.5,100 c 0,2.85063 -3.156276,4.05931 -4.110013,1.57391 z M 83.039826,91.547988 c -1.450683,-1.747966 -0.5567,-5.135667 1.570683,-5.952021 C 86.578522,84.84077 90,86.654788 90,88.453396 c 0,4.341381 -4.328301,6.265805 -6.960174,3.094592 z M 95.693853,92.36052 C 94.894922,91.561589 95.798039,90 97.059017,90 97.576558,90 98,90.675 98,91.5 c 0,1.54641 -1.179963,1.986704 -2.306147,0.86052 z M 102,71.21584 C 102,69.947208 112.44884,60 113.78145,60 c 2.1907,0 1.29912,1.488751 -4.0629,6.78416 C 104.88355,71.559107 102,73.214723 102,71.21584 Z m 16,-0.9893 c 0,-0.425403 3.54452,-4.297195 7.87672,-8.603982 5.28602,-5.255022 8.12206,-7.433542 8.62267,-6.623549 0.46897,0.758814 -1.98229,3.953543 -6.60169,8.603982 C 121.30382,70.24117 118,72.45209 118,70.22654 Z m 0,-15.052226 C 118,54.202944 122.31677,50 123.31445,50 c 1.36222,0 0.64475,2.72695 -1.14319,4.345012 C 120.22782,56.1038 118,56.546721 118,55.174314 Z"/>
      <path id="logo" style="filter: url(#displacementFilter);transform-origin:center;" fill="#9AA092" d="m 128.4546,159.94983 c -1.80426,-1.99368 -1.80457,-2.14449 -0.0113,-5.4744 1.50273,-2.7904 1.6111,-3.70495 0.58548,-4.94075 -1.72373,-2.07698 -0.49706,-9.66964 2.09452,-12.9643 1.79674,-2.28419 2.7375,-2.57038 8.44928,-2.57038 6.11001,0 6.42742,0.118 6.42742,2.38953 0,4.48073 -3.12318,18.86884 -4.57765,21.08863 -2.99542,4.57159 -9.87984,5.88377 -12.96775,2.47167 z m 9.14644,-5.4964 c 0.35154,-1.40061 0.33853,-2.8472 -0.0289,-3.21463 -1.10653,-1.10653 -4.04975,1.31505 -4.39168,3.61333 -0.48897,3.28664 3.58792,2.91894 4.42059,-0.3987 z M 138.8,145.8 c 1.70969,-1.70969 1.49798,-6.74842 -0.31273,-7.44326 -2.21236,-0.84896 -4.48727,1.48261 -4.48727,4.59904 0,4.05628 2.25296,5.39126 4.8,2.84422 z m -126.783544,3.45 c 0.02746,-2.92017 3.628025,-21.86574 4.389782,-23.09829 C 16.797726,125.51827 18.023654,125 19.130522,125 c 1.801923,0 1.97885,0.5493 1.690983,5.25 L 20.5,135.5 l 3.716301,0.30836 c 3.361196,0.27889 3.775657,0.04 4.337472,-2.5 1.414572,-6.3954 2.16226,-7.8171 4.274555,-8.12791 2.682559,-0.39473 2.744867,0.93801 0.622714,13.31955 -2.108378,12.30117 -2.251617,12.66947 -4.786932,12.3083 C 26.811579,150.54439 26.5,149.85211 26.5,146 c 0,-4.18945 -0.193951,-4.52224 -2.810472,-4.82226 C 20.102278,140.76642 18,142.51958 18,145.92244 18,147.3951 17.46,149.14 16.8,149.8 c -1.81172,1.81172 -4.802519,1.46785 -4.783544,-0.55 z m 26.455062,0.70391 c -0.736205,-1.1912 0.348338,-10.32056 1.627987,-13.70391 0.505583,-1.33675 1.692976,-2.25 2.925401,-2.25 1.94387,0 2.031741,0.37711 1.396391,5.99287 -0.467182,4.12934 -0.300374,6.44791 0.536433,7.4562 0.667947,0.80483 0.924152,1.93303 0.569343,2.50713 -0.838077,1.35603 -6.217144,1.35429 -7.055555,-0.002 z m 11.949592,-4.95939 c 1.200205,-10.60841 1.377383,-10.81191 9.265019,-10.64163 L 66.5,134.5 v 5.66317 c 0,3.11474 0.3375,6.00224 0.75,6.41666 0.4125,0.41443 0.75,1.60701 0.75,2.6502 0,1.53746 -0.615531,1.83734 -3.25,1.58333 -3.244107,-0.31279 -3.250098,-0.32373 -3.304229,-6.03426 -0.02983,-3.14649 -0.38891,-6.05557 -0.797964,-6.46463 -1.666164,-1.66616 -4.194509,1.65972 -5.164749,6.7939 -0.860586,4.55393 -1.387302,5.44411 -3.390072,5.72941 -2.337739,0.33301 -2.361318,0.2506 -1.671876,-5.84326 z m 22.513119,4.42623 c -1.618003,-1.94957 -0.326687,-9.6521 2.144935,-12.79426 1.448015,-1.84085 3.107198,-2.59626 6.1947,-2.82038 4.181049,-0.3035 4.224323,-0.34657 5.079734,-5.05611 0.745105,-4.10223 1.188938,-4.75 3.254582,-4.75 2.838223,0 2.820443,-0.26229 0.789792,11.65074 -1.262392,7.40595 -1.344676,9.70855 -0.388124,10.86113 0.667647,0.80446 0.982951,2.06451 0.700675,2.80011 -0.745238,1.94206 -16.176436,2.03648 -17.776294,0.10877 z M 82.8,145.8 c 1.709687,-1.70969 1.497981,-6.74842 -0.312735,-7.44326 C 80.274908,137.50778 78,139.83935 78,142.95578 c 0,4.05628 2.252957,5.39126 4.8,2.84422 z m 13.522898,3.59908 c -0.884352,-2.30459 1.492701,-3.35932 4.896622,-2.17271 2.11085,0.73585 3.25853,0.69558 4.09788,-0.14377 1.40724,-1.40724 -0.65559,-3.0433 -3.8674,-3.06729 -4.444646,-0.0332 -6.014039,-5.2899 -2.522631,-8.44958 4.120761,-3.72924 17.060051,-1.15315 13.265811,2.64109 -0.95801,0.95801 -1.91159,0.96049 -4.42577,0.0115 -2.6411,-0.99691 -3.46046,-0.95383 -4.65923,0.24494 -1.27275,1.27275 -1.11229,1.58469 1.28373,2.49565 1.50606,0.57261 3.29399,1.0411 3.97319,1.0411 1.61637,0 3.6349,2.05468 3.6349,3.7 0,0.715 -0.9,2.2 -2,3.3 -2.61843,2.61843 -12.712435,2.91296 -13.677102,0.39908 z m 21.015232,0.0397 c -0.63331,-1.65038 0.23771,-11.16985 1.26759,-13.85369 0.62776,-1.63591 3.90376,-2.18778 4.76028,-0.8019 0.26622,0.43075 0.0219,2.94989 -0.54289,5.59809 -0.73198,3.43202 -0.71044,5.1314 0.075,5.91682 C 123.50414,146.90414 124,148.21 124,149.2 c 0,2.34653 -5.77364,2.55346 -6.66187,0.23877 z m 32.1752,0.31123 c -0.23314,-0.6875 0.5726,-6.65 1.79053,-13.25 2.04014,-11.05555 2.39843,-12.02615 4.55231,-12.33227 2.21246,-0.31444 2.31927,-0.073 1.99086,4.5 L 157.5,133.5 l 3.98732,0.32451 c 5.68891,0.463 6.50162,1.47322 5.81939,7.23361 -0.37812,3.1926 -0.1538,5.4212 0.64219,6.38031 1.71266,2.06363 0.45558,3.56157 -2.98886,3.56157 -3.29526,0 -4.03656,-1.7151 -3.67387,-8.5 0.1955,-3.65702 -5.3e-4,-4 -2.28617,-4 -2.10755,0 -2.63417,0.62791 -3.35468,4 -0.47008,2.2 -1.24793,5.0125 -1.72856,6.25 -0.93964,2.4193 -3.70885,3.04818 -4.40343,1 z m 24.41921,-0.87605 c -1.70022,-3.17689 0.68677,-17.59985 3.1291,-18.90694 2.77226,-1.48367 3.77002,-1.17287 4.11881,1.28299 0.26651,1.87653 1.03523,2.30154 4.63122,2.56051 3.41653,0.24605 4.24519,0.66127 3.99145,2 -0.20019,1.05621 -1.44152,1.79227 -3.31167,1.9637 -6.82503,0.6256 -7.49145,1.05049 -7.49145,4.77623 0,4.11736 2.18554,5.49661 4.86599,3.07084 2.23007,-2.01819 5.13401,-2.10882 5.13401,-0.16024 0,5.11085 -12.62794,7.97119 -15.06746,3.41291 z M 41.591115,128.14743 c -1.505978,-2.43673 2.678608,-6.27771 4.669883,-4.28643 1.549039,1.54904 0.352789,4.61978 -1.926854,4.94619 -1.179984,0.16895 -2.414346,-0.12794 -2.743029,-0.65976 z M 120,127.12244 c 0,-2.45222 2.31521,-4.32245 4.37325,-3.5327 C 127.37596,124.74198 125.81746,129 122.39301,129 120.71869,129 120,128.43612 120,127.12244 Z M 83.36471,118.97032 C 64.81786,113.24376 58.648914,89.705384 72.127974,76.095161 75.966722,72.219059 81.708116,69.390122 87.67125,68.436579 91.114942,67.88591 93.149324,66.384892 100.60792,58.891577 108.52104,50.941623 112,48.461045 112,50.768762 c 0,0.422819 -4.39555,5.147819 -9.76789,10.5 C 94.883751,68.589547 91.818611,71 89.857836,71 85.484374,71 78.68957,73.910243 75.166097,77.292532 68.60629,83.58949 66.189156,91.438257 68.301678,99.58224 c 4.418898,17.03529 25.006726,23.1332 37.533642,11.11708 4.46455,-4.2825 6.37506,-8.11746 7.2818,-14.616727 0.71912,-5.154446 1.20693,-5.870413 10.04959,-14.75 C 131.42662,73.038193 135,70.440777 135,72.731211 c 0,0.402166 -4.11034,4.858708 -9.13408,9.903427 -8.39086,8.425899 -9.19909,9.58348 -9.93307,14.226621 -1.47917,9.357201 -6.34122,16.265781 -14.30755,20.329901 -4.547831,2.32013 -13.639578,3.20595 -18.26059,1.77916 z m 0.116697,-9.36389 C 79.259556,107.76685 74.223199,101.70668 73.438033,97.521381 70.985188,84.446592 82.89037,73.253721 95.296551,76.970703 103.31581,79.37333 109.08116,88.423408 107.60504,96.291786 105.59718,106.99462 93.195895,113.8393 83.481407,109.60643 Z m 13.137158,-3.22972 c 7.191995,-3.41282 9.884385,-11.190606 6.512505,-18.813312 -4.792477,-10.834187 -20.440714,-10.860018 -25.574098,-0.04222 -3.337209,7.032646 -0.516316,15.142362 6.514113,18.727272 4.279113,2.18197 8.136519,2.2214 12.54748,0.12826 z m -8.138196,-5.40847 c -0.388357,-0.62838 -0.235562,-1.613047 0.339546,-2.188155 1.343899,-1.343899 4.477138,-0.171685 3.930377,1.470445 -0.556604,1.67168 -3.386371,2.14732 -4.269923,0.71771 z m -4.4405,-9.420201 c -1.72537,-2.078943 -0.875087,-4.996975 1.557852,-5.346296 2.993334,-0.429783 4.839244,2.113264 3.436489,4.734335 -1.292266,2.414621 -3.294641,2.659974 -4.994341,0.611961 z M 102,71.21584 C 102,69.947208 112.44884,60 113.78145,60 c 2.1907,0 1.29912,1.488751 -4.0629,6.78416 C 104.88355,71.559107 102,73.214723 102,71.21584 Z m 16,-0.9893 c 0,-0.425403 3.54452,-4.297195 7.87672,-8.603982 5.28602,-5.255022 8.12206,-7.433542 8.62267,-6.623549 0.46897,0.758814 -1.98229,3.953543 -6.60169,8.603982 C 121.30382,70.24117 118,72.45209 118,70.22654 Z m 0,-15.052226 C 118,54.202944 122.31677,50 123.31445,50 c 1.36222,0 0.64475,2.72695 -1.14319,4.345012 C 120.22782,56.1038 118,56.546721 118,55.174314 Z"/>
      <path id="logo" style="filter: url(#displacementFilter);transform-origin:center;" fill="#1FBFFF" d="m 128.4546,159.94983 c -1.80426,-1.99368 -1.80457,-2.14449 -0.0113,-5.4744 1.50273,-2.7904 1.6111,-3.70495 0.58548,-4.94075 -1.72373,-2.07698 -0.49706,-9.66964 2.09452,-12.9643 1.79674,-2.28419 2.7375,-2.57038 8.44928,-2.57038 6.11001,0 6.42742,0.118 6.42742,2.38953 0,4.48073 -3.12318,18.86884 -4.57765,21.08863 -2.99542,4.57159 -9.87984,5.88377 -12.96775,2.47167 z m 9.14644,-5.4964 c 0.35154,-1.40061 0.33853,-2.8472 -0.0289,-3.21463 -1.10653,-1.10653 -4.04975,1.31505 -4.39168,3.61333 -0.48897,3.28664 3.58792,2.91894 4.42059,-0.3987 z M 138.8,145.8 c 1.70969,-1.70969 1.49798,-6.74842 -0.31273,-7.44326 -2.21236,-0.84896 -4.48727,1.48261 -4.48727,4.59904 0,4.05628 2.25296,5.39126 4.8,2.84422 z m -126.783544,3.45 c 0.02746,-2.92017 3.628025,-21.86574 4.389782,-23.09829 C 16.797726,125.51827 18.023654,125 19.130522,125 c 1.801923,0 1.97885,0.5493 1.690983,5.25 L 20.5,135.5 l 3.716301,0.30836 c 3.361196,0.27889 3.775657,0.04 4.337472,-2.5 1.414572,-6.3954 2.16226,-7.8171 4.274555,-8.12791 2.682559,-0.39473 2.744867,0.93801 0.622714,13.31955 -2.108378,12.30117 -2.251617,12.66947 -4.786932,12.3083 C 26.811579,150.54439 26.5,149.85211 26.5,146 c 0,-4.18945 -0.193951,-4.52224 -2.810472,-4.82226 C 20.102278,140.76642 18,142.51958 18,145.92244 18,147.3951 17.46,149.14 16.8,149.8 c -1.81172,1.81172 -4.802519,1.46785 -4.783544,-0.55 z m 26.455062,0.70391 c -0.736205,-1.1912 0.348338,-10.32056 1.627987,-13.70391 0.505583,-1.33675 1.692976,-2.25 2.925401,-2.25 1.94387,0 2.031741,0.37711 1.396391,5.99287 -0.467182,4.12934 -0.300374,6.44791 0.536433,7.4562 0.667947,0.80483 0.924152,1.93303 0.569343,2.50713 -0.838077,1.35603 -6.217144,1.35429 -7.055555,-0.002 z m 11.949592,-4.95939 c 1.200205,-10.60841 1.377383,-10.81191 9.265019,-10.64163 L 66.5,134.5 v 5.66317 c 0,3.11474 0.3375,6.00224 0.75,6.41666 0.4125,0.41443 0.75,1.60701 0.75,2.6502 0,1.53746 -0.615531,1.83734 -3.25,1.58333 -3.244107,-0.31279 -3.250098,-0.32373 -3.304229,-6.03426 -0.02983,-3.14649 -0.38891,-6.05557 -0.797964,-6.46463 -1.666164,-1.66616 -4.194509,1.65972 -5.164749,6.7939 -0.860586,4.55393 -1.387302,5.44411 -3.390072,5.72941 -2.337739,0.33301 -2.361318,0.2506 -1.671876,-5.84326 z m 22.513119,4.42623 c -1.618003,-1.94957 -0.326687,-9.6521 2.144935,-12.79426 1.448015,-1.84085 3.107198,-2.59626 6.1947,-2.82038 4.181049,-0.3035 4.224323,-0.34657 5.079734,-5.05611 0.745105,-4.10223 1.188938,-4.75 3.254582,-4.75 2.838223,0 2.820443,-0.26229 0.789792,11.65074 -1.262392,7.40595 -1.344676,9.70855 -0.388124,10.86113 0.667647,0.80446 0.982951,2.06451 0.700675,2.80011 -0.745238,1.94206 -16.176436,2.03648 -17.776294,0.10877 z M 82.8,145.8 c 1.709687,-1.70969 1.497981,-6.74842 -0.312735,-7.44326 C 80.274908,137.50778 78,139.83935 78,142.95578 c 0,4.05628 2.252957,5.39126 4.8,2.84422 z m 13.522898,3.59908 c -0.884352,-2.30459 1.492701,-3.35932 4.896622,-2.17271 2.11085,0.73585 3.25853,0.69558 4.09788,-0.14377 1.40724,-1.40724 -0.65559,-3.0433 -3.8674,-3.06729 -4.444646,-0.0332 -6.014039,-5.2899 -2.522631,-8.44958 4.120761,-3.72924 17.060051,-1.15315 13.265811,2.64109 -0.95801,0.95801 -1.91159,0.96049 -4.42577,0.0115 -2.6411,-0.99691 -3.46046,-0.95383 -4.65923,0.24494 -1.27275,1.27275 -1.11229,1.58469 1.28373,2.49565 1.50606,0.57261 3.29399,1.0411 3.97319,1.0411 1.61637,0 3.6349,2.05468 3.6349,3.7 0,0.715 -0.9,2.2 -2,3.3 -2.61843,2.61843 -12.712435,2.91296 -13.677102,0.39908 z m 21.015232,0.0397 c -0.63331,-1.65038 0.23771,-11.16985 1.26759,-13.85369 0.62776,-1.63591 3.90376,-2.18778 4.76028,-0.8019 0.26622,0.43075 0.0219,2.94989 -0.54289,5.59809 -0.73198,3.43202 -0.71044,5.1314 0.075,5.91682 C 123.50414,146.90414 124,148.21 124,149.2 c 0,2.34653 -5.77364,2.55346 -6.66187,0.23877 z m 32.1752,0.31123 c -0.23314,-0.6875 0.5726,-6.65 1.79053,-13.25 2.04014,-11.05555 2.39843,-12.02615 4.55231,-12.33227 2.21246,-0.31444 2.31927,-0.073 1.99086,4.5 L 157.5,133.5 l 3.98732,0.32451 c 5.68891,0.463 6.50162,1.47322 5.81939,7.23361 -0.37812,3.1926 -0.1538,5.4212 0.64219,6.38031 1.71266,2.06363 0.45558,3.56157 -2.98886,3.56157 -3.29526,0 -4.03656,-1.7151 -3.67387,-8.5 0.1955,-3.65702 -5.3e-4,-4 -2.28617,-4 -2.10755,0 -2.63417,0.62791 -3.35468,4 -0.47008,2.2 -1.24793,5.0125 -1.72856,6.25 -0.93964,2.4193 -3.70885,3.04818 -4.40343,1 z m 24.41921,-0.87605 c -1.70022,-3.17689 0.68677,-17.59985 3.1291,-18.90694 2.77226,-1.48367 3.77002,-1.17287 4.11881,1.28299 0.26651,1.87653 1.03523,2.30154 4.63122,2.56051 3.41653,0.24605 4.24519,0.66127 3.99145,2 -0.20019,1.05621 -1.44152,1.79227 -3.31167,1.9637 -6.82503,0.6256 -7.49145,1.05049 -7.49145,4.77623 0,4.11736 2.18554,5.49661 4.86599,3.07084 2.23007,-2.01819 5.13401,-2.10882 5.13401,-0.16024 0,5.11085 -12.62794,7.97119 -15.06746,3.41291 z M 41.591115,128.14743 c -1.505978,-2.43673 2.678608,-6.27771 4.669883,-4.28643 1.549039,1.54904 0.352789,4.61978 -1.926854,4.94619 -1.179984,0.16895 -2.414346,-0.12794 -2.743029,-0.65976 z M 120,127.12244 c 0,-2.45222 2.31521,-4.32245 4.37325,-3.5327 C 127.37596,124.74198 125.81746,129 122.39301,129 120.71869,129 120,128.43612 120,127.12244 Z M 81.909795,117.62888 C 73.632466,114.67011 67.018855,106.45996 65.523475,97.286852 64.532507,91.207959 67.2101,82.882196 71.789954,77.801737 75.920657,73.219524 83.903299,69.024701 88.520849,69.009769 90.988893,69.001788 93.181039,67.353029 100.5,60 c 4.92707,-4.95 9.4088,-9 9.9594,-9 0.5506,0 -3.2145,4.233201 -8.3669,9.407113 -8.399986,8.43506 -9.842164,9.478219 -13.956779,10.095243 -17.137579,2.569939 -26.174284,19.624346 -18.342354,34.616374 5.238386,10.02742 16.360663,14.73828 27.278749,11.55396 9.393644,-2.73971 16.854904,-12.03317 16.905924,-21.057392 0.02,-3.540095 0.83668,-4.715484 9.20618,-13.25 C 128.23554,77.214384 132.83915,73 133.41447,73 c 0.57532,0 -3.076,4.1625 -8.11405,9.25 -8.63098,8.71572 -9.21966,9.580682 -10.19169,14.975106 -1.35755,7.533874 -3.11587,10.730974 -8.51602,15.484374 -6.855637,6.03457 -16.298275,7.91653 -24.682915,4.9194 z m 1.571612,-8.02245 C 79.259556,107.76685 74.223199,101.70668 73.438033,97.521381 70.985188,84.446592 82.89037,73.253721 95.296551,76.970703 103.31581,79.37333 109.08116,88.423408 107.60504,96.291786 105.59718,106.99462 93.195895,113.8393 83.481407,109.60643 Z m 13.137158,-3.22972 c 7.191995,-3.41282 9.884385,-11.190606 6.512505,-18.813312 -4.792477,-10.834187 -20.440714,-10.860018 -25.574098,-0.04222 -3.337209,7.032646 -0.516316,15.142352 6.514113,18.727262 4.279113,2.18197 8.136519,2.2214 12.54748,0.12826 z m -8.138196,-5.40847 c -0.388357,-0.62838 -0.235562,-1.613047 0.339546,-2.188155 1.343899,-1.343899 4.477138,-0.171685 3.930377,1.470445 -0.556604,1.67168 -3.386371,2.14732 -4.269923,0.71771 z m -4.4405,-9.420201 c -1.72537,-2.078943 -0.875087,-4.996975 1.557852,-5.346296 2.993334,-0.429783 4.839244,2.113264 3.436489,4.734335 -1.292266,2.414621 -3.294641,2.659974 -4.994341,0.611961 z M 107.5,66 c 2.70865,-2.75 5.37482,-5 5.92482,-5 0.55,0 -1.21617,2.25 -3.92482,5 -2.70865,2.75 -5.37482,5 -5.92482,5 -0.55,0 1.21617,-2.25 3.92482,-5 z m 18.47094,-3.470749 c 4.08149,-4.108913 7.6455,-7.246148 7.92001,-6.971635 C 134.54515,56.21182 120.85558,70 119.55185,70 c -0.55099,0 2.33761,-3.361837 6.41909,-7.470749 z m -5.46539,-9.535382 c 0.99854,-1.103372 2.03241,-1.789246 2.29749,-1.524166 C 123.47497,52.141636 120.98082,55 119.72257,55 c -0.5679,0 -0.21556,-0.902759 0.78298,-2.006131 z"/>
      <path id="logo" style="filter: url(#displacementFilter);transform-origin:center;" fill="#6D213C" d="m 128.66667,160.33333 c -1.00684,-1.00684 -0.79899,-5.13352 0.29255,-5.80812 0.55154,-0.34087 0.71031,-3.25825 0.37358,-6.86422 -0.64059,-6.85996 1.10188,-12.0294 4.40851,-13.07889 2.52896,-0.80265 11.63736,0.0539 11.99541,1.12807 0.16596,0.49788 -0.58848,5.33066 -1.67655,10.73951 C 141.66916,158.33557 139.734,161 133.49235,161 c -2.28746,0 -4.45902,-0.3 -4.82568,-0.66667 z m 8.89647,-4.78935 C 139.38956,152.75651 138.7761,151 135.97617,151 c -2.17676,0 -4.39842,3.45725 -3.58456,5.57814 0.84235,2.19512 3.38935,1.68579 5.17153,-1.03416 z m 2.83707,-12.42429 c 0.804,-2.81969 0.66198,-3.60105 -0.85632,-4.71125 -2.34234,-1.71276 -5.09694,-0.32536 -5.92797,2.98572 -0.94361,3.75963 0.25054,5.7597 3.23,5.40994 1.97684,-0.23207 2.81873,-1.10478 3.55429,-3.68441 z m -127.151763,7.03386 c -1.343174,-0.83013 2.456716,-23.30297 4.123603,-24.38729 2.255494,-1.46723 3.12795,0.0168 3.12795,5.32061 0,5.19036 0.115661,5.42639 2.810472,5.73539 3.751704,0.43018 5.580044,-1.28539 6.323267,-5.93325 0.692771,-4.33235 2.841363,-6.81391 4.480469,-5.1748 1.314591,1.31459 -2.575226,23.33465 -4.311609,24.40779 C 27.768284,151.37928 27,150.0803 27,145.38349 V 140.885 l -4.25,0.3075 c -4.111828,0.2975 -4.278611,0.44382 -5.130039,4.50041 -0.880291,4.19411 -2.359898,5.70389 -4.371514,4.46064 z m 25.966811,-0.73339 c -1.073993,-1.91912 0.514852,-12.40838 2.140925,-14.134 2.341352,-2.48467 3.558778,-0.0242 2.483235,5.01864 -0.754679,3.53846 -0.707299,5.14947 0.182996,6.22221 0.660736,0.79614 0.940116,2.12825 0.620846,2.96026 -0.762362,1.98668 -4.303141,1.94291 -5.428002,-0.0671 z m 11.307949,0.61739 c -0.819339,-1.32572 1.456798,-13.90716 2.649311,-14.64417 1.844397,-1.1399 11.235139,-1.29994 12.543885,-0.21378 0.936467,0.7772 1.130424,2.49436 0.672041,5.94982 -0.426405,3.21439 -0.233713,5.35209 0.569695,6.32014 C 68.462147,149.26178 67.503482,151 65,151 c -2.670366,0 -3.5,-1.77779 -3.5,-7.5 0,-4.66667 -0.166667,-5 -2.5,-5 -2.107553,0 -2.634167,0.62791 -3.354681,4 -1.628334,7.62078 -3.431096,10.27367 -5.122112,7.53755 z m 23.571905,0.0424 C 73.322423,149.59076 72.730667,147.76806 72.780098,146.0295 73.021564,137.53683 75.633393,134 81.663489,134 c 3.643096,0 4.481318,-0.94489 5.292508,-5.96603 0.438215,-2.71249 1.10473,-3.61007 2.867298,-3.86136 2.550793,-0.36367 2.579283,-1.58786 -0.326582,14.03286 -1.052131,5.65582 -1.023034,7.02579 0.18588,8.75176 0.7883,1.12545 1.155645,2.49549 0.816323,3.04452 -0.824296,1.33374 -4.824407,1.27276 -6.191557,-0.0944 -0.790187,-0.79019 -1.657779,-0.79019 -3.134258,0 -2.456289,1.31456 -5.169684,1.38073 -7.077989,0.17258 z m 10.296936,-7.29018 c 1.314093,-6.57046 -5.488452,-7.18029 -6.929076,-0.62117 -0.535837,2.43965 -0.288455,3.48585 1.056858,4.46957 2.49667,1.82561 5.075416,0.13561 5.872218,-3.8484 z M 97.2,149.8 c -2.31544,-2.31544 -1.176441,-2.98444 3.89388,-2.28709 4.53723,0.62403 5.05631,0.50747 4.75,-1.06662 -0.21066,-1.08261 -1.89345,-2.19956 -4.34388,-2.88326 -3.221417,-0.89882 -4.059774,-1.62734 -4.307092,-3.74285 C 96.787824,136.35518 100.16205,134 105.53138,134 c 4.94298,0 8.82765,2.38444 6.46862,3.97049 -0.825,0.55468 -2.175,0.71951 -3,0.36631 -3.04199,-1.30236 -6.43978,-0.8632 -6.78898,0.87747 -0.2407,1.19979 0.50135,1.89293 2.47254,2.30956 4.40733,0.93155 5.79293,1.98386 6.11523,4.64429 0.22306,1.8413 -0.35911,2.76615 -2.29705,3.64914 -3.35841,1.53019 -9.764072,1.52041 -11.30174,-0.0173 z m 20.16172,-0.29975 c -0.72039,-1.87731 1.27619,-13.53816 2.53326,-14.79523 2.10034,-2.10034 3.22346,0.49885 2.5488,5.89861 -0.45672,3.65547 -0.28599,5.88157 0.52614,6.86013 0.66124,0.79675 0.91196,1.91834 0.55715,2.49244 -0.97836,1.58302 -5.51157,1.24777 -6.16535,-0.45595 z m 32.99642,-0.009 c -0.53879,-1.40405 0.45579,-8.75133 2.73994,-20.24091 0.81936,-4.12148 1.45148,-5.25 2.94068,-5.25 1.6492,0 1.86851,0.68507 1.6791,5.24513 l -0.21786,5.24514 4.5,0.005 4.5,0.005 0.0705,5.5 c 0.0388,3.025 0.43606,6.31775 0.88278,7.31722 0.99724,2.23112 -0.56068,4 -3.09711,3.51652 -1.53179,-0.29199 -1.90825,-1.44444 -2.15394,-6.59378 C 161.92639,138.45739 161.73379,138 159.57473,138 c -3.12094,0 -4.25359,1.60003 -5.0846,7.18271 -0.69573,4.67397 -3.04978,7.1284 -4.13199,4.3082 z M 174.60555,148.75 c -1.22834,-1.91853 -1.24933,-3.34401 -0.1425,-9.67608 0.87574,-5.00997 1.9063,-7.87122 3.16751,-8.79424 1.66577,-1.21911 1.92827,-1.11822 2.40944,0.92608 0.43834,1.86236 1.37957,2.38836 5,2.79424 6.45427,0.72357 6.11399,3.33398 -0.52141,4 -4.27108,0.4287 -5.11267,0.87546 -5.90189,3.13299 -0.50627,1.44814 -0.64125,3.36064 -0.29998,4.25 0.78137,2.0362 5.27506,2.12319 6.04491,0.11701 0.64694,-1.6859 4.63837,-2.07705 4.63837,-0.45455 0,0.575 -1.10455,2.15 -2.45455,3.5 -3.34703,3.34704 -9.85653,3.45856 -11.9399,0.20455 z M 42.380002,127.54789 C 41.676287,125.71403 42.700488,124 44.5,124 c 2.058081,0 2.837849,1.88799 1.463645,3.5438 -1.538424,1.85369 -2.873299,1.85521 -3.583643,0.004 z m 78.028358,0.0739 C 119.59899,125.51261 120.73506,124 123.12857,124 c 1.51073,0 1.93109,0.5568 1.69098,2.23978 -0.37294,2.61398 -3.55579,3.61115 -4.41119,1.38201 z M 81.909795,117.62888 C 73.632466,114.67011 67.018855,106.45996 65.523475,97.286852 64.532507,91.207959 67.2101,82.882196 71.789954,77.801737 75.920657,73.219524 83.903299,69.024701 88.520849,69.009769 90.988893,69.001788 93.181039,67.353029 100.5,60 c 4.92707,-4.95 9.4088,-9 9.9594,-9 0.5506,0 -3.2145,4.233201 -8.3669,9.407113 -8.399986,8.43506 -9.842164,9.478219 -13.956779,10.095243 -17.137579,2.569939 -26.174284,19.624346 -18.342354,34.616374 5.238386,10.02742 16.360663,14.73828 27.278749,11.55396 9.393644,-2.73971 16.854904,-12.03317 16.905924,-21.057392 0.02,-3.540095 0.83668,-4.715484 9.20618,-13.25 C 128.23554,77.214384 132.83915,73 133.41447,73 c 0.57532,0 -3.076,4.1625 -8.11405,9.25 -8.63098,8.71572 -9.21966,9.580682 -10.19169,14.975106 -1.35755,7.533874 -3.11587,10.730974 -8.51602,15.484374 -6.855637,6.03457 -16.298275,7.91653 -24.682915,4.9194 z m 4.569283,-7.54832 C 72.145141,106.59657 68.909027,86.825934 81.467983,79.465895 c 15.448771,-9.053582 32.119707,7.617351 23.066117,23.066125 -3.48604,5.94849 -11.262214,9.1996 -18.055022,7.54854 z m 13.10224,-5.14338 C 105.256,99.63562 106.62262,92.17357 103.0054,86.24086 97.629099,77.423019 86.397116,76.568196 79.062819,84.418682 c -1.866673,1.99805 -2.538722,4.012501 -2.870959,8.605634 l -0.433778,5.996924 4.610339,4.61034 4.610339,4.61034 5.996924,-0.43378 c 4.593133,-0.33224 6.607584,-1.00429 8.605634,-2.87096 z M 89,100 c 0,-1.111111 0.666667,-2 1.5,-2 0.833333,0 1.5,0.888889 1.5,2 0,1.11111 -0.666667,2 -1.5,2 -0.833333,0 -1.5,-0.88889 -1.5,-2 z m -5.641215,-9.507405 c -0.34775,-0.906223 0.02437,-2.304319 0.826929,-3.106881 2.000908,-2.000907 5.002102,-0.706373 4.617158,1.991564 -0.379268,2.658156 -4.526045,3.507697 -5.444087,1.115317 z M 107.5,66 c 2.70865,-2.75 5.37482,-5 5.92482,-5 0.55,0 -1.21617,2.25 -3.92482,5 -2.70865,2.75 -5.37482,5 -5.92482,5 -0.55,0 1.21617,-2.25 3.92482,-5 z m 18.47094,-3.470749 c 4.08149,-4.108913 7.6455,-7.246148 7.92001,-6.971635 C 134.54515,56.21182 120.85558,70 119.55185,70 c -0.55099,0 2.33761,-3.361837 6.41909,-7.470749 z m -5.46539,-9.535382 c 0.99854,-1.103372 2.03241,-1.789246 2.29749,-1.524166 C 123.47497,52.141636 120.98082,55 119.72257,55 c -0.5679,0 -0.21556,-0.902759 0.78298,-2.006131 z"/>
      <path id="logo" style="filter: url(#displacementFilter);transform-origin:center;" fill="#33372F" d="m 128.66667,160.33333 c -1.00684,-1.00684 -0.79899,-5.13352 0.29255,-5.80812 0.55154,-0.34087 0.71031,-3.25825 0.37358,-6.86422 -0.64059,-6.85996 1.10188,-12.0294 4.40851,-13.07889 2.52896,-0.80265 11.63736,0.0539 11.99541,1.12807 0.16596,0.49788 -0.58848,5.33066 -1.67655,10.73951 C 141.66916,158.33557 139.734,161 133.49235,161 c -2.28746,0 -4.45902,-0.3 -4.82568,-0.66667 z m 8.89647,-4.78935 C 139.38956,152.75651 138.7761,151 135.97617,151 c -2.17676,0 -4.39842,3.45725 -3.58456,5.57814 0.84235,2.19512 3.38935,1.68579 5.17153,-1.03416 z m 2.83707,-12.42429 c 0.804,-2.81969 0.66198,-3.60105 -0.85632,-4.71125 -2.34234,-1.71276 -5.09694,-0.32536 -5.92797,2.98572 -0.94361,3.75963 0.25054,5.7597 3.23,5.40994 1.97684,-0.23207 2.81873,-1.10478 3.55429,-3.68441 z m -127.151763,7.03386 c -1.343174,-0.83013 2.456716,-23.30297 4.123603,-24.38729 2.255494,-1.46723 3.12795,0.0168 3.12795,5.32061 0,5.19036 0.115661,5.42639 2.810472,5.73539 3.751704,0.43018 5.580044,-1.28539 6.323267,-5.93325 0.692771,-4.33235 2.841363,-6.81391 4.480469,-5.1748 1.314591,1.31459 -2.575226,23.33465 -4.311609,24.40779 C 27.768284,151.37928 27,150.0803 27,145.38349 V 140.885 l -4.25,0.3075 c -4.111828,0.2975 -4.278611,0.44382 -5.130039,4.50041 -0.880291,4.19411 -2.359898,5.70389 -4.371514,4.46064 z m 25.966811,-0.73339 c -1.073993,-1.91912 0.514852,-12.40838 2.140925,-14.134 2.341352,-2.48467 3.558778,-0.0242 2.483235,5.01864 -0.754679,3.53846 -0.707299,5.14947 0.182996,6.22221 0.660736,0.79614 0.940116,2.12825 0.620846,2.96026 -0.762362,1.98668 -4.303141,1.94291 -5.428002,-0.0671 z m 11.307949,0.61739 c -0.819339,-1.32572 1.456798,-13.90716 2.649311,-14.64417 1.844397,-1.1399 11.235139,-1.29994 12.543885,-0.21378 0.936467,0.7772 1.130424,2.49436 0.672041,5.94982 -0.426405,3.21439 -0.233713,5.35209 0.569695,6.32014 C 68.462147,149.26178 67.503482,151 65,151 c -2.670366,0 -3.5,-1.77779 -3.5,-7.5 0,-4.66667 -0.166667,-5 -2.5,-5 -2.107553,0 -2.634167,0.62791 -3.354681,4 -1.628334,7.62078 -3.431096,10.27367 -5.122112,7.53755 z m 23.571905,0.0424 C 73.322423,149.59076 72.730667,147.76806 72.780098,146.0295 73.021564,137.53683 75.633393,134 81.663489,134 c 3.643096,0 4.481318,-0.94489 5.292508,-5.96603 0.438215,-2.71249 1.10473,-3.61007 2.867298,-3.86136 2.550793,-0.36367 2.579283,-1.58786 -0.326582,14.03286 -1.052131,5.65582 -1.023034,7.02579 0.18588,8.75176 0.7883,1.12545 1.155645,2.49549 0.816323,3.04452 -0.824296,1.33374 -4.824407,1.27276 -6.191557,-0.0944 -0.790187,-0.79019 -1.657779,-0.79019 -3.134258,0 -2.456289,1.31456 -5.169684,1.38073 -7.077989,0.17258 z m 10.296936,-7.29018 c 1.314093,-6.57046 -5.488452,-7.18029 -6.929076,-0.62117 -0.535837,2.43965 -0.288455,3.48585 1.056858,4.46957 2.49667,1.82561 5.075416,0.13561 5.872218,-3.8484 z M 97.2,149.8 c -2.31544,-2.31544 -1.176441,-2.98444 3.89388,-2.28709 4.53723,0.62403 5.05631,0.50747 4.75,-1.06662 -0.21066,-1.08261 -1.89345,-2.19956 -4.34388,-2.88326 -3.221417,-0.89882 -4.059774,-1.62734 -4.307092,-3.74285 C 96.787824,136.35518 100.16205,134 105.53138,134 c 4.94298,0 8.82765,2.38444 6.46862,3.97049 -0.825,0.55468 -2.175,0.71951 -3,0.36631 -3.04199,-1.30236 -6.43978,-0.8632 -6.78898,0.87747 -0.2407,1.19979 0.50135,1.89293 2.47254,2.30956 4.40733,0.93155 5.79293,1.98386 6.11523,4.64429 0.22306,1.8413 -0.35911,2.76615 -2.29705,3.64914 -3.35841,1.53019 -9.764072,1.52041 -11.30174,-0.0173 z m 20.16172,-0.29975 c -0.72039,-1.87731 1.27619,-13.53816 2.53326,-14.79523 2.10034,-2.10034 3.22346,0.49885 2.5488,5.89861 -0.45672,3.65547 -0.28599,5.88157 0.52614,6.86013 0.66124,0.79675 0.91196,1.91834 0.55715,2.49244 -0.97836,1.58302 -5.51157,1.24777 -6.16535,-0.45595 z m 32.99642,-0.009 c -0.53879,-1.40405 0.45579,-8.75133 2.73994,-20.24091 0.81936,-4.12148 1.45148,-5.25 2.94068,-5.25 1.6492,0 1.86851,0.68507 1.6791,5.24513 l -0.21786,5.24514 4.5,0.005 4.5,0.005 0.0705,5.5 c 0.0388,3.025 0.43606,6.31775 0.88278,7.31722 0.99724,2.23112 -0.56068,4 -3.09711,3.51652 -1.53179,-0.29199 -1.90825,-1.44444 -2.15394,-6.59378 C 161.92639,138.45739 161.73379,138 159.57473,138 c -3.12094,0 -4.25359,1.60003 -5.0846,7.18271 -0.69573,4.67397 -3.04978,7.1284 -4.13199,4.3082 z M 174.60555,148.75 c -1.22834,-1.91853 -1.24933,-3.34401 -0.1425,-9.67608 0.87574,-5.00997 1.9063,-7.87122 3.16751,-8.79424 1.66577,-1.21911 1.92827,-1.11822 2.40944,0.92608 0.43834,1.86236 1.37957,2.38836 5,2.79424 6.45427,0.72357 6.11399,3.33398 -0.52141,4 -4.27108,0.4287 -5.11267,0.87546 -5.90189,3.13299 -0.50627,1.44814 -0.64125,3.36064 -0.29998,4.25 0.78137,2.0362 5.27506,2.12319 6.04491,0.11701 0.64694,-1.6859 4.63837,-2.07705 4.63837,-0.45455 0,0.575 -1.10455,2.15 -2.45455,3.5 -3.34703,3.34704 -9.85653,3.45856 -11.9399,0.20455 z M 42.380002,127.54789 C 41.676287,125.71403 42.700488,124 44.5,124 c 2.058081,0 2.837849,1.88799 1.463645,3.5438 -1.538424,1.85369 -2.873299,1.85521 -3.583643,0.004 z m 78.028358,0.0739 C 119.59899,125.51261 120.73506,124 123.12857,124 c 1.51073,0 1.93109,0.5568 1.69098,2.23978 -0.37294,2.61398 -3.55579,3.61115 -4.41119,1.38201 z M 86.479078,110.08056 C 72.145141,106.59657 68.909027,86.825934 81.467983,79.465895 c 15.448771,-9.053582 32.119707,7.617351 23.066117,23.066125 -3.48604,5.94849 -11.262214,9.1996 -18.055022,7.54854 z m 13.10224,-5.14338 C 105.256,99.63562 106.62262,92.17357 103.0054,86.24086 97.629099,77.423019 86.397116,76.568196 79.062819,84.418682 c -1.866673,1.99805 -2.538722,4.012501 -2.870959,8.605634 l -0.433778,5.996924 4.610339,4.61034 4.610339,4.61034 5.996924,-0.43378 c 4.593133,-0.33224 6.607584,-1.00429 8.605634,-2.87096 z M 89,100 c 0,-1.111111 0.666667,-2 1.5,-2 0.833333,0 1.5,0.888889 1.5,2 0,1.11111 -0.666667,2 -1.5,2 -0.833333,0 -1.5,-0.88889 -1.5,-2 z m -5.641215,-9.507405 c -0.34775,-0.906223 0.02437,-2.304319 0.826929,-3.106881 2.000908,-2.000907 5.002102,-0.706373 4.617158,1.991564 -0.379268,2.658156 -4.526045,3.507697 -5.444087,1.115317 z"/>
      <path id="logo" style="filter: url(#displacementFilter);transform-origin:center;" fill="#2F0E1A" d="m 129.75,159.9199 c -2.19863,-1.28058 -2.21642,-2.74703 -0.0622,-5.1274 1.43409,-1.58464 1.5082,-2.36162 0.49305,-5.16897 -1.3185,-3.64626 -0.69634,-8.90442 1.46407,-12.37353 1.19948,-1.92608 2.26168,-2.25 7.37815,-2.25 5.02573,0 5.97692,0.27851 5.97678,1.75 -3e-4,3.08938 -2.95184,17.29181 -4.00095,19.25209 -2.29608,4.29027 -7.49852,6.1022 -11.24888,3.91781 z M 137.8,156.8 c 1.80193,-1.80193 1.53311,-6.8 -0.36574,-6.8 -3.87989,0 -6.96324,3.45793 -5.79589,6.5 0.68946,1.79669 4.48037,1.98126 6.16163,0.3 z m 2.22473,-10.84621 c 0.6023,-1.12541 0.95563,-3.48791 0.78518,-5.25 -0.24461,-2.52869 -0.8249,-3.27648 -2.75388,-3.54876 -1.5023,-0.21205 -2.94719,0.34322 -3.75,1.44113 -1.36745,1.87009 -1.78605,7.59049 -0.63936,8.73717 1.42284,1.42284 5.30961,0.57951 6.35806,-1.37954 z M 13,149.18366 c 0,-0.44899 0.467639,-3.48649 1.039198,-6.75 C 16.550467,128.09471 17.140059,126 18.664736,126 c 1.252129,0 1.40091,0.88726 0.836692,4.98962 -0.638042,4.63912 -0.51815,5.05352 1.706777,5.89944 3.210329,1.22056 7.62235,0.27606 8.172126,-1.74945 0.244767,-0.90179 0.729716,-3.32711 1.077663,-5.38961 0.392202,-2.32482 1.185482,-3.75 2.087319,-3.75 1.848469,0 1.789139,2.12954 -0.389898,13.99481 -1.349134,7.34629 -2.135207,9.5702 -3.47385,9.828 -1.499121,0.2887 -1.640896,-0.22495 -1.06175,-3.84673 0.76951,-4.81225 -0.2475,-5.93669 -5.391254,-5.96077 -3.422497,-0.016 -4.391472,1.21852 -5.678405,7.23469 C 16.032984,149.66768 13,151.31965 13,149.18366 Z M 39.458466,148.9328 C 38.337007,147.11824 41.06757,135 42.597899,135 c 1.075623,0 1.239283,1.26438 0.75875,5.86186 -0.40643,3.88852 -0.232949,6.09656 0.515333,6.55902 0.62041,0.38343 1.128018,1.1206 1.128018,1.63814 0,1.29773 -4.728037,1.19004 -5.541534,-0.12622 z m 11.951088,-4.05068 c 1.278636,-9.79935 0.916096,-9.37549 8.191864,-9.57765 l 6.506394,-0.18078 -0.234402,5.68815 c -0.128921,3.12849 0.119966,6.47566 0.553083,7.43816 0.644867,1.43307 0.290008,1.75 -1.959407,1.75 -2.724544,0 -2.742371,-0.0438 -2.191193,-5.3842 C 62.859789,138.95839 61.981145,137 58.859017,137 c -2.22778,0 -2.983938,1.28307 -4.361913,7.40144 -1.621314,7.19881 -4.012722,7.57112 -3.08755,0.48068 z m 21.949183,3.61035 c -0.79752,-2.0783 0.484995,-8.5201 2.238292,-11.24247 1.090703,-1.69355 2.40234,-2.25 5.303579,-2.25 4.484552,0 5.660706,-1.11022 6.621197,-6.25 0.410503,-2.19668 1.276005,-3.75 2.089486,-3.75 1.716431,0 1.73073,-0.52989 -0.29114,10.78966 -1.314202,7.35764 -1.423035,9.81595 -0.5,11.29396 1.62581,2.60334 1.509507,2.91862 -1.070151,2.90107 -3.80494,-0.0259 -5.135735,-1.39542 -3.793333,-3.90372 0.639737,-1.19536 1.023697,-3.61509 0.853245,-5.37718 -0.244607,-2.52869 -0.824906,-3.27648 -2.753884,-3.54876 C 78.959153,136.7179 77,139.28684 77,143.78475 c 0,2.55507 0.495315,3.53202 1.988753,3.92256 2.84329,0.74354 1.438421,2.29269 -2.079155,2.29269 -1.726212,0 -3.214899,-0.63203 -3.550861,-1.50753 z m 24.044805,0.35146 c -0.514558,-0.83257 0.324544,-0.98746 2.998648,-0.55352 4.59994,0.74647 6.59781,0.0409 6.59781,-2.33001 0,-1.78667 -0.65437,-2.14123 -6.25,-3.38651 -3.410185,-0.75891 -3.860919,-4.90898 -0.71596,-6.59211 2.64307,-1.41453 11.1869,-0.85455 11.72112,0.76822 0.52895,1.60674 -2.20438,1.61092 -4.77218,0.007 -1.47415,-0.92061 -2.44257,-0.95716 -3.73644,-0.14101 -2.97906,1.87915 -2.132,4.70598 1.75346,5.85168 6.25312,1.84385 7.23022,3.15896 4.42857,5.96061 -1.86061,1.86061 -10.938031,2.17416 -12.025028,0.41536 z M 118.05763,146.75 c 0.10194,-5.74883 1.41116,-11.07293 2.84001,-11.54921 1.13328,-0.37776 1.26388,0.6549 0.70622,5.58402 -0.43472,3.84234 -0.30491,6.28192 0.35597,6.69036 C 123.83754,148.63566 123.0487,150 120.5,150 c -2.16567,0 -2.49229,-0.43463 -2.44237,-3.25 z m 32.63389,2.5 c -0.23458,-0.4125 0.49198,-6.0375 1.61458,-12.5 1.50816,-8.6821 2.42104,-11.75 3.49632,-11.75 1.16806,0 1.32435,0.98672 0.79197,5 l -0.66328,5 h 5.03445 c 5.49992,0 5.41282,-0.12241 5.07974,7.13923 -0.11703,2.55157 0.2749,4.94063 0.87096,5.30901 2.06301,1.27502 1.07216,2.68327 -1.66626,2.36818 -2.53155,-0.29128 -2.73301,-0.63417 -2.53617,-4.31642 0.34119,-6.38267 -0.43361,-8.5 -3.11044,-8.5 -2.79144,0 -4.2298,1.50497 -5.023,5.25559 -0.31921,1.50943 -0.81396,3.86941 -1.09944,5.24441 -0.50116,2.4138 -1.90948,3.29734 -2.78943,1.75 z m 24.29272,-0.76899 c -1.01448,-1.22238 -1.01097,-2.97872 0.018,-8.99413 1.45472,-8.50434 3.37541,-11.25398 4.95644,-7.09557 0.84221,2.21519 1.59892,2.60869 5.01657,2.60869 2.21361,0 4.02475,0.45 4.02475,1 0,0.55 -1.9699,1 -4.37756,1 -2.57693,0 -4.86595,0.58848 -5.56491,1.43068 -1.33478,1.60831 -1.72414,6.68171 -0.6466,8.42521 0.99994,1.61794 4.11559,1.41954 5.58907,-0.35589 1.38127,-1.66433 4,-2.0288 4,-0.5567 0,3.4351 -10.56194,5.49438 -13.01576,2.53771 z M 42.570027,127.11331 c -0.680548,-1.10115 1.867651,-3.3423 2.771982,-2.43797 0.361895,0.3619 0.657991,1.25799 0.657991,1.99133 0,1.4897 -2.577864,1.82538 -3.429973,0.44664 z M 121,126.60699 c 0,-1.69554 2.70442,-2.89426 3.52699,-1.56332 0.32508,0.52598 0.31293,1.40633 -0.027,1.95633 -0.92405,1.49514 -3.5,1.20589 -3.5,-0.39301 z m -33,-17.1564 c 0.825,-0.17458 3.174253,-0.59028 5.220563,-0.92379 4.430562,-0.7221 9.530657,-4.74789 11.372837,-8.977223 0.77322,-1.77517 1.34467,-2.332799 1.36746,-1.334373 0.0561,2.457316 -5.85926,8.844396 -9.663118,10.433756 -1.778428,0.74307 -4.710458,1.29884 -6.515623,1.23504 C 87.976953,109.8202 87.175,109.62516 88,109.45059 Z m -6.75,-2.56564 c -4.512999,-2.8902 -4.093528,-3.55536 0.5,-0.79285 4.648762,2.79572 4.795994,2.91181 3.666667,2.89105 C 84.9125,108.97389 83.0375,108.0297 81.25,106.88495 Z m -5.295837,-5.9706 c -0.613912,-1.147102 -0.927843,-2.274004 -0.697624,-2.504222 0.230219,-0.230219 0.932031,0.708322 1.559582,2.085642 1.378071,3.02454 0.707091,3.35038 -0.861958,0.41858 z M 89,100 c 0,-0.55 0.675,-1 1.5,-1 0.825,0 1.5,0.45 1.5,1 0,0.55 -0.675,1 -1.5,1 -0.825,0 -1.5,-0.45 -1.5,-1 z M 74.116001,94.217881 c -0.0638,-1.805165 0.491969,-4.737195 1.235043,-6.515623 1.589355,-3.803861 7.976436,-9.719193 10.433752,-9.663116 0.998426,0.02278 0.440797,0.594239 -1.334373,1.367454 -4.229333,1.842183 -8.255125,6.942279 -8.977222,11.372841 -1.028006,6.307521 -1.237076,6.837197 -1.3572,3.438444 z M 106.19495,93.5 c 0.0204,-1.65 0.2445,-2.203936 0.49804,-1.230968 0.25354,0.972967 0.23687,2.322967 -0.037,3 C 106.38201,95.946064 106.17457,95.15 106.19495,93.5 Z M 84.380002,90.547887 C 83.683386,88.732533 84.695214,87 86.452028,87 c 1.824556,0 2.644328,2.503644 1.269827,3.878145 -1.523309,1.523309 -2.674218,1.409571 -3.341853,-0.330258 z M 105,88.743392 c 0,-2.34509 -4.94672,-7.810679 -8.450423,-9.336796 -1.841564,-0.802135 -2.357499,-1.343817 -1.302458,-1.367454 3.606632,-0.0808 12.296551,9.750525 10.344191,11.702885 C 105.26609,90.067246 105,89.61786 105,88.743392 Z M 89.269032,77.307009 c 0.972967,-0.253543 2.322967,-0.236869 3,0.03705 C 92.946064,77.617986 92.15,77.825431 90.5,77.805051 88.85,77.784672 88.296064,77.560553 89.269032,77.307009 Z"/>
  </g>
</svg>
